<svg width="25" height="20" viewBox="0 0 25 20" fill="none" xmlns="http://www.w3.org/2000/svg">
<path d="M13.5278 14.8929V2.03571C13.5278 1.69472 13.3932 1.3677 13.1535 1.12658C12.9139 0.885459 12.5889 0.75 12.25 0.75H2.02778C1.68889 0.75 1.36388 0.885459 1.12425 1.12658C0.884623 1.3677 0.75 1.69472 0.75 2.03571V14.8929C0.75 15.2338 0.884623 15.5609 1.12425 15.802C1.36388 16.0431 1.68889 16.1786 2.02778 16.1786H3.30556M13.5278 14.8929C13.5278 15.2338 13.3932 15.5609 13.1535 15.802C12.9139 16.0431 12.5889 16.1786 12.25 16.1786H8.41667M13.5278 14.8929V4.60714C13.5278 4.26615 13.6624 3.93912 13.902 3.69801C14.1417 3.45689 14.4667 3.32143 14.8056 3.32143H18.1099C18.4487 3.3215 18.7737 3.45701 19.0133 3.69814L23.3756 8.08757C23.6153 8.32863 23.7499 8.65561 23.75 8.99657V14.8929C23.75 15.2338 23.6154 15.5609 23.3757 15.802C23.1361 16.0431 22.8111 16.1786 22.4722 16.1786H21.1944M13.5278 14.8929C13.5278 15.2338 13.6624 15.5609 13.902 15.802C14.1417 16.0431 14.4667 16.1786 14.8056 16.1786H16.0833M8.41667 16.1786C8.41667 15.4966 8.14742 14.8425 7.66816 14.3603C7.1889 13.8781 6.53889 13.6071 5.86111 13.6071C5.18334 13.6071 4.53332 13.8781 4.05406 14.3603C3.5748 14.8425 3.30556 15.4966 3.30556 16.1786C3.30556 16.8606 3.5748 17.5146 4.05406 17.9968C4.53332 18.4791 5.18334 18.75 5.86111 18.75C6.53889 18.75 7.1889 18.4791 7.66816 17.9968C8.14742 17.5146 8.41667 16.8606 8.41667 16.1786ZM21.1944 16.1786C21.1944 16.8606 20.9252 17.5146 20.4459 17.9968C19.9667 18.4791 19.3167 18.75 18.6389 18.75C17.9611 18.75 17.3111 18.4791 16.8318 17.9968C16.3526 17.5146 16.0833 16.8606 16.0833 16.1786M21.1944 16.1786C21.1944 15.4966 20.9252 14.8425 20.4459 14.3603C19.9667 13.8781 19.3167 13.6071 18.6389 13.6071C17.9611 13.6071 17.3111 13.8781 16.8318 14.3603C16.3526 14.8425 16.0833 15.4966 16.0833 16.1786" stroke="#0B0E15" stroke-width="1.5" stroke-linecap="round" stroke-linejoin="round"/>
</svg>
