<svg width="19" height="20" viewBox="0 0 19 20" fill="none" xmlns="http://www.w3.org/2000/svg">
<path d="M4.52719 6.75V5.75C4.52719 4.42392 5.02477 3.15215 5.91047 2.21447C6.79617 1.27678 7.99743 0.75 9.25 0.75C10.5026 0.75 11.7038 1.27678 12.5895 2.21447C13.4752 3.15215 13.9728 4.42392 13.9728 5.75V6.75M15.9621 6.75H2.53794C2.27865 6.75016 2.02248 6.81 1.78719 6.92536C1.5519 7.04072 1.34311 7.20886 1.17528 7.41812C1.00745 7.62738 0.884593 7.87276 0.815218 8.13727C0.745844 8.40178 0.73161 8.67909 0.773503 8.95L2.07133 17.168C2.14102 17.6097 2.35631 18.0111 2.67899 18.3007C3.00167 18.5903 3.41085 18.7495 3.83388 18.75H14.6699C15.0923 18.7486 15.5006 18.5889 15.8225 18.2994C16.1443 18.0099 16.3591 17.6091 16.4287 17.168L17.7265 8.95C17.7684 8.67909 17.7542 8.40178 17.6848 8.13727C17.6154 7.87276 17.4926 7.62738 17.3247 7.41812C17.1569 7.20886 16.9481 7.04072 16.7128 6.92536C16.4775 6.81 16.2214 6.75016 15.9621 6.75V6.75Z" stroke="#0B0E15" stroke-width="1.5" stroke-linecap="round" stroke-linejoin="round"/>
</svg>
