<svg width="8" height="12" viewBox="0 0 8 12" fill="none" xmlns="http://www.w3.org/2000/svg">
<path d="M0.239858 1.95918C0.0666467 1.72338 -0.017446 1.4317 0.00301868 1.13769C0.0234834 0.843677 0.147131 0.567068 0.351263 0.358646C0.555395 0.150225 0.826311 0.0239769 1.11427 0.00308217C1.40223 -0.0178126 1.68791 0.068048 1.91886 0.2449L6.716 5.14286C6.93574 5.37175 7.05882 5.67949 7.05882 6C7.05882 6.32051 6.93574 6.62825 6.716 6.85714L1.91886 11.7551C1.68791 11.932 1.40223 12.0178 1.11427 11.9969C0.82631 11.976 0.555395 11.8498 0.351263 11.6414C0.147131 11.4329 0.0234828 11.1563 0.0030181 10.8623C-0.0174466 10.5683 0.0666462 10.2766 0.239858 10.0408L4.18551 6L0.227865 1.95918H0.239858Z" fill="#0B0E15"/>
</svg>
