<svg width="23" height="20" viewBox="0 0 23 20" fill="none" xmlns="http://www.w3.org/2000/svg">
<path d="M14.0001 2.72443C14.0001 2.40135 13.9989 2.21966 13.9874 2.08775C13.9841 2.04994 13.9793 2.02545 13.9767 2.01077C13.966 1.99702 13.9516 1.98324 13.9308 1.97181C13.915 1.96869 13.8813 1.96311 13.8214 1.95851C13.6753 1.94731 13.4763 1.94616 13.1339 1.94616H2.86634C2.52401 1.94616 2.32493 1.94731 2.17884 1.95851C2.11774 1.9632 2.08391 1.96872 2.06849 1.97181C2.04812 1.98316 2.03313 1.99636 2.02259 2.00982C2.01997 2.0244 2.01617 2.04928 2.01282 2.08775C2.00134 2.21966 2.00013 2.40136 2.00013 2.72443V4.7371C2.00013 4.85825 2.00015 4.92107 2.00208 4.96707C2.00368 5.00494 2.00581 5.00216 2.00208 4.98512C2.0038 4.99298 2.00711 5.00208 2.01185 5.01078C2.0042 4.99673 2.00161 4.99715 2.0265 5.02883C2.05622 5.06665 2.09845 5.11606 2.17884 5.21034L6.02747 9.72412L6.22962 9.96739C6.26394 10.0114 6.29778 10.0574 6.33021 10.1052L6.42298 10.2553V10.2563C6.51367 10.423 6.58068 10.6013 6.62122 10.7865C6.67201 11.0187 6.66712 11.2529 6.66712 11.4403V16.5832L9.33314 14.7064V11.4403C9.33314 11.2529 9.32832 11.0186 9.37903 10.7865C9.41963 10.601 9.48672 10.4227 9.57728 10.2563V10.2553C9.69049 10.0475 9.84787 9.87169 9.97278 9.72507V9.72412L13.8214 5.21034L13.9738 5.02883C13.9987 4.9971 13.9961 4.99664 13.9884 5.01078C13.9933 5.00188 13.9965 4.99262 13.9982 4.98512C13.9945 5.00209 13.9966 5.00497 13.9982 4.96707C14.0001 4.92105 14.0001 4.85821 14.0001 4.7371V2.72443ZM22.0001 15.326C22.5524 15.326 23.0001 15.7616 23.0001 16.299C23.0001 16.8365 22.5524 17.2721 22.0001 17.2721H16.1671C15.6148 17.2721 15.1671 16.8365 15.1671 16.299C15.1671 15.7616 15.6148 15.326 16.1671 15.326H22.0001ZM22.0001 8.7577C22.5524 8.7577 23.0001 9.19336 23.0001 9.73077C23.0001 10.2682 22.5524 10.7038 22.0001 10.7038H16.1671C15.6148 10.7038 15.1671 10.2682 15.1671 9.73077C15.1671 9.19336 15.6148 8.7577 16.1671 8.7577H22.0001ZM22.0001 2.18943C22.5524 2.18943 23.0001 2.62509 23.0001 3.1625C23.0001 3.69992 22.5524 4.13558 22.0001 4.13558H19.6671C19.1148 4.13558 18.6671 3.69992 18.6671 3.1625C18.6671 2.62509 19.1148 2.18943 19.6671 2.18943H22.0001ZM16.0001 4.7371C16.0001 4.92453 16.005 5.1588 15.9542 5.39089C15.9137 5.57632 15.8466 5.7546 15.756 5.92114C15.6427 6.1293 15.4856 6.30649 15.3605 6.45329L11.5118 10.9661L11.5128 10.9671C11.4321 11.0618 11.3894 11.1115 11.3595 11.1495L11.3449 11.1666C11.3398 11.1758 11.3367 11.1848 11.3351 11.1923C11.3388 11.1754 11.3377 11.1724 11.3361 11.2103C11.3341 11.2564 11.3331 11.3192 11.3331 11.4403V15.2043C11.3331 15.5166 11.1791 15.8101 10.9191 15.9931L6.25306 19.2772C5.94874 19.4914 5.54652 19.5213 5.21204 19.3551C4.87752 19.1888 4.66712 18.854 4.66712 18.4885V11.4403C4.66712 11.3192 4.66612 11.2563 4.66419 11.2103C4.66259 11.1725 4.66145 11.1753 4.66517 11.1923C4.66351 11.1847 4.66005 11.1763 4.6554 11.1676L4.64075 11.1495C4.61098 11.1116 4.56891 11.0615 4.48841 10.9671L0.639776 6.45329C0.514383 6.30622 0.357604 6.12927 0.244269 5.92114C0.15349 5.75434 0.0865539 5.57605 0.0460264 5.39089C-0.00476955 5.15869 0.00012799 4.92449 0.00012799 4.7371V2.72443C0.000127626 2.43459 -0.000636654 2.15645 0.0196592 1.92335C0.0410431 1.67785 0.0912626 1.39665 0.243292 1.11657L0.328253 0.973079C0.540557 0.648239 0.842387 0.38784 1.19642 0.218564C1.48213 0.0820521 1.76824 0.0375044 2.02161 0.018057C2.26443 -0.000557742 2.55573 1.22369e-06 2.86634 1.90637e-06H13.1339C13.4446 1.22168e-06 13.7358 -0.000557948 13.9786 0.018057C14.2319 0.0374941 14.5173 0.0831507 14.8029 0.219514L14.8038 0.218564C15.2085 0.412016 15.5443 0.724307 15.757 1.11562V1.11657C15.909 1.39664 15.9592 1.67785 15.9806 1.92335C16.0009 2.15645 16.0001 2.43459 16.0001 2.72443V4.7371Z" fill="#0B0E15"/>
</svg>
