<svg width="42" height="42" viewBox="0 0 42 42" fill="none" xmlns="http://www.w3.org/2000/svg">
<rect width="42" height="42" rx="21" fill="#61AE24" fill-opacity="0.15"/>
<path d="M28.976 26.064C28.976 26.352 28.912 26.648 28.776 26.936C28.64 27.224 28.464 27.496 28.232 27.752C27.84 28.184 27.408 28.496 26.92 28.696C26.44 28.896 25.92 29 25.36 29C24.544 29 23.672 28.808 22.752 28.416C21.832 28.024 20.912 27.496 20 26.832C19.08 26.16 18.208 25.416 17.376 24.592C16.552 23.76 15.808 22.888 15.144 21.976C14.488 21.064 13.96 20.152 13.576 19.248C13.192 18.336 13 17.464 13 16.632C13 16.088 13.096 15.568 13.288 15.088C13.48 14.6 13.784 14.152 14.208 13.752C14.72 13.248 15.28 13 15.872 13C16.096 13 16.32 13.048 16.52 13.144C16.728 13.24 16.912 13.384 17.056 13.592L18.912 16.208C19.056 16.408 19.16 16.592 19.232 16.768C19.304 16.936 19.344 17.104 19.344 17.256C19.344 17.448 19.288 17.64 19.176 17.824C19.072 18.008 18.92 18.2 18.728 18.392L18.12 19.024C18.032 19.112 17.992 19.216 17.992 19.344C17.992 19.408 18 19.464 18.016 19.528C18.04 19.592 18.064 19.64 18.08 19.688C18.224 19.952 18.472 20.296 18.824 20.712C19.184 21.128 19.568 21.552 19.984 21.976C20.416 22.4 20.832 22.792 21.256 23.152C21.672 23.504 22.016 23.744 22.288 23.888C22.328 23.904 22.376 23.928 22.432 23.952C22.496 23.976 22.56 23.984 22.632 23.984C22.768 23.984 22.872 23.936 22.96 23.848L23.568 23.248C23.768 23.048 23.96 22.896 24.144 22.8C24.328 22.688 24.512 22.632 24.712 22.632C24.864 22.632 25.024 22.664 25.2 22.736C25.376 22.808 25.56 22.912 25.76 23.048L28.408 24.928C28.616 25.072 28.76 25.24 28.848 25.44C28.928 25.64 28.976 25.84 28.976 26.064Z" stroke="#61AE24" stroke-width="1.5" stroke-miterlimit="10"/>
</svg>
