<svg width="13" height="13" viewBox="0 0 13 13" fill="none" xmlns="http://www.w3.org/2000/svg">
<path d="M6.21667 1.11667C7.88333 1.11667 8.08333 1.11667 8.73333 1.15C9.33333 1.18333 9.66667 1.28333 9.88333 1.36667C10.1667 1.48333 10.3833 1.61667 10.6 1.83333C10.8167 2.05 10.95 2.26667 11.0667 2.55C11.15 2.76667 11.25 3.1 11.2833 3.7C11.3167 4.35 11.3167 4.55 11.3167 6.21667C11.3167 7.88333 11.3167 8.08333 11.2833 8.73333C11.25 9.33333 11.15 9.66667 11.0667 9.88333C10.95 10.1667 10.8167 10.3833 10.6 10.6C10.3833 10.8167 10.1667 10.95 9.88333 11.0667C9.66667 11.15 9.33333 11.25 8.73333 11.2833C8.08333 11.3167 7.88333 11.3167 6.21667 11.3167C4.55 11.3167 4.35 11.3167 3.7 11.2833C3.1 11.25 2.76667 11.15 2.55 11.0667C2.26667 10.95 2.05 10.8167 1.83333 10.6C1.61667 10.3833 1.48333 10.1667 1.36667 9.88333C1.28333 9.66667 1.18333 9.33333 1.15 8.73333C1.11667 8.08333 1.11667 7.88333 1.11667 6.21667C1.11667 4.55 1.11667 4.35 1.15 3.7C1.18333 3.1 1.28333 2.76667 1.36667 2.55C1.48333 2.26667 1.61667 2.05 1.83333 1.83333C2.05 1.61667 2.26667 1.48333 2.55 1.36667C2.76667 1.28333 3.1 1.18333 3.7 1.15C4.35 1.13333 4.55 1.11667 6.21667 1.11667ZM6.21667 0C4.51667 0 4.31667 -1.91232e-07 3.65 0.0333331C2.98333 0.0666665 2.53333 0.166667 2.13333 0.316667C1.71667 0.483333 1.38333 0.683333 1.03333 1.03333C0.683334 1.38333 0.466667 1.73333 0.316667 2.13333C0.166667 2.53333 0.0499998 2.98333 0.0333331 3.65C-1.91232e-07 4.31667 0 4.53333 0 6.21667C0 7.91667 -1.91232e-07 8.11667 0.0333331 8.78333C0.0666665 9.45 0.166667 9.9 0.316667 10.3C0.483333 10.7167 0.683334 11.05 1.03333 11.4C1.38333 11.75 1.73333 11.9667 2.13333 12.1167C2.53333 12.2667 2.98333 12.3833 3.65 12.4C4.31667 12.4333 4.53333 12.4333 6.21667 12.4333C7.91667 12.4333 8.11667 12.4333 8.78333 12.4C9.45 12.3667 9.9 12.2667 10.3 12.1167C10.7167 11.95 11.05 11.75 11.4 11.4C11.75 11.05 11.9667 10.7 12.1167 10.3C12.2667 9.9 12.3833 9.45 12.4 8.78333C12.4333 8.11667 12.4333 7.9 12.4333 6.21667C12.4333 4.53333 12.4333 4.31667 12.4 3.65C12.3667 2.98333 12.2667 2.53333 12.1167 2.13333C11.95 1.71667 11.75 1.38333 11.4 1.03333C11.05 0.683333 10.7 0.466667 10.3 0.316667C9.9 0.166667 9.45 0.0499998 8.78333 0.0333331C8.11667 0.0166665 7.91667 0 6.21667 0Z" fill="#0B0E15"/>
<path d="M6.21563 3.0332C4.44896 3.0332 3.01562 4.46654 3.01562 6.2332C3.01562 7.99987 4.44896 9.4332 6.21563 9.4332C7.98229 9.4332 9.41562 7.99987 9.41562 6.2332C9.41562 4.46654 7.98229 3.0332 6.21563 3.0332ZM6.21563 8.31654C5.06563 8.31654 4.13229 7.3832 4.13229 6.2332C4.13229 5.0832 5.06563 4.14987 6.21563 4.14987C7.36563 4.14987 8.29896 5.0832 8.29896 6.2332C8.29896 7.3832 7.36563 8.31654 6.21563 8.31654Z" fill="#0B0E15"/>
<path d="M9.54688 3.65039C9.96109 3.65039 10.2969 3.3146 10.2969 2.90039C10.2969 2.48618 9.96109 2.15039 9.54688 2.15039C9.13266 2.15039 8.79688 2.48618 8.79688 2.90039C8.79688 3.3146 9.13266 3.65039 9.54688 3.65039Z" fill="#0B0E15"/>
</svg>
