<svg width="100" height="91" viewBox="0 0 100 91" fill="none" xmlns="http://www.w3.org/2000/svg">
<path opacity="0.2" d="M68.1536 0.628035L5.24412 26.4426C0.907297 28.2222 -1.15106 33.2482 0.654707 37.6488L20.3004 85.5248C22.1061 89.9254 27.1015 92.0569 31.4383 90.2773L94.3478 64.4627C98.6847 62.6831 100.743 57.6571 98.9373 53.2565L79.2916 5.38055C77.4858 0.979943 72.4905 -1.15156 68.1536 0.628035ZM71.4279 8.60737L72.2645 10.6461L50.9976 48.3811L9.35661 36.4647L8.5184 34.4219L71.4279 8.60737ZM28.164 82.2979L13.5018 46.5665L51.9478 57.5705C52.8864 57.8426 53.8542 57.7718 54.7074 57.4217C55.5606 57.0715 56.2992 56.4422 56.7761 55.5892L76.4114 20.7519L91.0814 56.4801L28.164 82.2979Z" fill="#5B606D"/>
</svg>
