<svg width="16" height="16" viewBox="0 0 16 16" fill="none" xmlns="http://www.w3.org/2000/svg">
<path d="M0 3.92773C3.12152e-05 3.36441 0.100022 2.81596 0.304688 2.30273H0.303711C0.514561 1.76682 0.845803 1.28326 1.29199 0.862305C1.85083 0.316717 2.51796 8.64495e-05 3.2627 0C3.56005 0 3.86371 0.0639742 4.14355 0.196289L4.14453 0.195312C4.43558 0.329702 4.70342 0.536681 4.91113 0.833984L6.53516 3.12305H6.53418C6.68597 3.33439 6.80841 3.54507 6.89746 3.7627H6.89648C6.98625 3.97528 7.05072 4.21938 7.05078 4.47363C7.05078 4.7926 6.95713 5.09484 6.79492 5.36133L6.79297 5.36035C6.66367 5.58356 6.49349 5.79423 6.30176 5.9873L5.93164 6.37305C6.03322 6.53146 6.18981 6.74254 6.41309 7.00684C6.71756 7.35867 7.03991 7.71437 7.38672 8.06836L7.93066 8.58984C8.10811 8.75467 8.28265 8.91162 8.45801 9.06055L8.69824 9.25586C8.858 9.38066 8.99406 9.47343 9.10547 9.54199L9.46973 9.18359C9.67427 8.97945 9.90261 8.79147 10.1543 8.66016V8.66113C10.4072 8.51567 10.6867 8.42773 10.998 8.42773C11.241 8.42774 11.4772 8.48039 11.709 8.5752C11.8717 8.64178 12.0293 8.72607 12.1836 8.82227L12.3369 8.92188L12.3428 8.92578L12.3496 8.93066L14.6592 10.5703L14.7607 10.6455C14.9592 10.8009 15.126 10.989 15.2471 11.2158L15.3037 11.333L15.3135 11.3564C15.4108 11.5999 15.4785 11.8699 15.4785 12.1807C15.4785 12.5451 15.398 12.9141 15.2324 13.2646C15.0837 13.5796 14.8891 13.8804 14.6338 14.1621C14.2257 14.6119 13.7583 14.9536 13.2178 15.1758C12.7032 15.3901 12.1503 15.4999 11.5654 15.5C10.7329 15.5 9.86952 15.3038 8.98926 14.9287C8.12678 14.5612 7.2725 14.0698 6.43359 13.459H6.43262C5.59671 12.8484 4.80479 12.1725 4.05078 11.4258L4.0459 11.4209C3.29937 10.6671 2.62357 9.87552 2.01953 9.0459L2.01758 9.04199C1.41719 8.2073 0.924882 7.36058 0.563477 6.50977L0.5625 6.50781C0.195001 5.63491 0 4.77265 0 3.92773ZM1.5 3.92773C1.5 4.53813 1.64053 5.20165 1.94434 5.92383L2.06641 6.19922C2.36407 6.84153 2.75374 7.49751 3.23145 8.16211C3.78935 8.92839 4.41692 9.6631 5.1123 10.3652H5.11133C5.81181 11.0585 6.54513 11.683 7.31738 12.2471H7.31641C8.07345 12.7982 8.82968 13.2303 9.57715 13.5488C10.3068 13.8597 10.9701 14 11.5654 14C11.96 13.9999 12.3166 13.9274 12.6416 13.792L12.6455 13.79C12.9574 13.6622 13.2456 13.4594 13.5225 13.1543L13.6289 13.0283C13.7286 12.9 13.809 12.7657 13.876 12.624C13.9484 12.4706 13.9785 12.3202 13.9785 12.1807C13.9785 12.1039 13.9634 12.0288 13.9258 11.9307C13.9114 11.9009 13.8837 11.8584 13.8047 11.8037L13.7979 11.7988L11.4932 10.1621C11.3461 10.0621 11.2316 10.0001 11.1406 9.96289C11.0647 9.93188 11.0211 9.92774 10.998 9.92773C10.9769 9.92773 10.9488 9.93039 10.8906 9.96582L10.8701 9.97852L10.8477 9.99023C10.7786 10.0263 10.6717 10.1027 10.5273 10.2471L10.5234 10.251L9.99219 10.7754C9.7826 10.9835 9.50467 11.1113 9.17773 11.1113C9.05669 11.1113 8.90474 11.0972 8.73926 11.0352L8.72363 11.0293L8.70801 11.0225C8.67312 11.0075 8.64039 10.9928 8.62207 10.9844C8.60733 10.9776 8.60084 10.9746 8.59863 10.9736L8.56152 10.959L8.52637 10.9395C8.22292 10.7788 7.87545 10.5319 7.48926 10.2051H7.48828C7.0979 9.87362 6.71985 9.51644 6.33594 9.13965L6.3252 9.12891C5.9481 8.74454 5.6017 8.36179 5.2793 7.98926L5.27344 7.98242C4.95218 7.60275 4.69757 7.25691 4.53613 6.96094L4.50488 6.90234L4.4834 6.83887C4.48695 6.84953 4.48898 6.85383 4.47852 6.8291C4.47052 6.81022 4.45343 6.77067 4.43652 6.72559L4.42188 6.68555L4.41113 6.64355C4.39801 6.59101 4.38742 6.53707 4.37988 6.48047L4.36816 6.30078L4.37305 6.19141C4.39575 5.93637 4.49858 5.69088 4.69922 5.49023L5.22168 4.94824L5.22656 4.94238L5.23145 4.9375C5.36546 4.80348 5.45186 4.68845 5.50098 4.60156L5.50684 4.5918L5.51367 4.58105C5.54739 4.52562 5.55078 4.49065 5.55078 4.47363C5.55066 4.46533 5.54679 4.42014 5.51367 4.34277L5.50879 4.33105C5.47241 4.24212 5.41328 4.13238 5.31445 3.99512L5.31152 3.99121L3.6875 1.70215L3.68262 1.69531C3.63907 1.63242 3.58621 1.58922 3.51562 1.55664L3.50586 1.55176C3.43855 1.51945 3.35367 1.5 3.2627 1.5C2.97665 1.50008 2.66768 1.61294 2.33301 1.94238L2.32715 1.94824L2.32129 1.95312C2.02557 2.23211 1.82533 2.53356 1.7002 2.85156L1.69824 2.85547C1.56806 3.18094 1.50003 3.54072 1.5 3.92773Z" fill="#0B0E15"/>
</svg>
