<svg width="20" height="20" viewBox="0 0 20 20" fill="none" xmlns="http://www.w3.org/2000/svg">
<rect width="20" height="20" rx="10" fill="#7E7E7E"/>
<mask id="mask0_19201_8997" style="mask-type:alpha" maskUnits="userSpaceOnUse" x="0" y="0" width="20" height="20">
<rect width="20" height="20" rx="10" fill="#7E7E7E"/>
</mask>
<g mask="url(#mask0_19201_8997)">
<path d="M-7 -2H28.52V22H-7V-2Z" fill="#D7141A"/>
<path d="M-7 -2H28.52V10H-7V-2Z" fill="white"/>
<path d="M10.76 10L-7 -2V22L10.76 10Z" fill="#11457E"/>
<path d="M-1 -2H35V22H-1V-2Z" fill="white"/>
<path d="M-1 6.40027H35V22.0003H-1V6.40027Z" fill="#0B4EA2"/>
<path d="M-1 13.5997H35V21.9997H-1V13.5997Z" fill="#EE1C25"/>
<path d="M14.4201 4C14.4201 4 14.6 5.8126 14.6 9.4378C14.5743 13.1405 11.8209 15.0145 9.8 16C7.77912 15.0145 5.0257 13.1405 5 9.4378C5 5.8126 5.17992 4 5.17992 4H14.4201Z" fill="#EE1C25"/>
<path d="M9.45241 13.6V8.90704C8.15548 8.90704 7.78688 9.04753 7.39917 9.19136C7.43564 8.71184 7.43564 8.22921 7.39917 7.74969C7.78688 7.89352 8.15548 8.03401 9.45241 8.03401V6.72948C9.04286 6.72948 8.47767 6.74955 7.82784 7.02049C7.86448 6.53986 7.86448 6.0561 7.82784 5.57547C8.47767 5.84307 9.04286 5.86314 9.45241 5.86314C9.45241 5.48516 9.35685 4.67233 9.23671 4C9.61094 4.04082 9.9874 4.04082 10.3616 4C10.2415 4.67233 10.1459 5.48516 10.1459 5.86314C10.5555 5.86314 11.1207 5.84307 11.7705 5.57547C11.7339 6.0561 11.7339 6.53986 11.7705 7.02049C11.1207 6.74955 10.5555 6.72948 10.1459 6.72948V8.03401C11.4429 8.03401 11.8115 7.89352 12.1992 7.74969C12.1627 8.22921 12.1627 8.71184 12.1992 9.19136C11.8115 9.04753 11.4429 8.90704 10.1459 8.90704V13.6H9.45241Z" fill="white"/>
<mask id="mask1_19201_8997" style="mask-type:luminance" maskUnits="userSpaceOnUse" x="5" y="4" width="10" height="12">
<path d="M14.4201 4C14.4201 4 14.6 5.8126 14.6 9.4378C14.5743 13.1405 11.8209 15.0145 9.8 16C7.77912 15.0145 5.0257 13.1405 5 9.4378C5 5.8126 5.17992 4 5.17992 4H14.4201Z" fill="white"/>
</mask>
<g mask="url(#mask1_19201_8997)">
<path d="M6.89513 17.2007C6.59185 17.2006 6.29302 17.0982 6.02373 16.9022C5.75443 16.7061 5.52253 16.4221 5.34751 16.074C5.17249 15.7258 5.05945 15.3237 5.01789 14.9015C4.97632 14.4792 5.00745 14.0491 5.10865 13.6472C5.20986 13.2453 5.37818 12.8835 5.59949 12.592C5.8208 12.3005 6.08863 12.088 6.3805 11.9722C6.67236 11.8563 6.97974 11.8407 7.27681 11.9264C7.57388 12.0122 7.85197 12.1969 8.08773 12.4651C8.29213 12.0709 8.55234 11.7524 8.84887 11.5334C9.1454 11.3144 9.47057 11.2007 9.8 11.2007C10.1294 11.2007 10.4546 11.3144 10.7511 11.5334C11.0477 11.7524 11.3079 12.0709 11.5123 12.4651C11.748 12.1969 12.0261 12.0122 12.3232 11.9264C12.6203 11.8407 12.9276 11.8563 13.2195 11.9722C13.5114 12.088 13.7792 12.3005 14.0005 12.592C14.2218 12.8835 14.3901 13.2453 14.4913 13.6472C14.5926 14.0491 14.6237 14.4792 14.5821 14.9015C14.5406 15.3237 14.4275 15.7258 14.2525 16.074C14.0775 16.4221 13.8456 16.7061 13.5763 16.9022C13.307 17.0982 13.0081 17.2006 12.7049 17.2007H6.89513Z" fill="#0B4EA2"/>
</g>
<path d="M14.4105 4L14.4255 4.15245L14.2589 4.16928C14.4255 4.15246 14.4255 4.1525 14.4255 4.15253V4.1526C14.4256 4.15268 14.4256 4.1528 14.4256 4.15293C14.4256 4.15319 14.4256 4.15354 14.4257 4.154C14.4258 4.15494 14.4259 4.15634 14.4261 4.15815C14.4264 4.16176 14.4269 4.16709 14.4276 4.17413C14.4289 4.18821 14.4308 4.20917 14.4332 4.23698C14.438 4.29264 14.4448 4.37577 14.453 4.48638C14.4694 4.7076 14.4912 5.03874 14.513 5.47979C14.5565 6.36191 14.6 7.68369 14.6 9.44512V9.4463C14.5745 13.142 11.8353 15.0022 9.87307 15.9642L9.8 16L9.72693 15.9642C7.76467 15.0022 5.02552 13.142 5 9.4463V9.44512C5 7.68369 5.04348 6.36191 5.08703 5.47979C5.1088 5.03874 5.1306 4.7076 5.14698 4.48638C5.15518 4.37577 5.16202 4.29264 5.16682 4.23698C5.16923 4.20917 5.17112 4.18821 5.17242 4.17413C5.17307 4.16709 5.17356 4.16176 5.17391 4.15815C5.17408 4.15634 5.17422 4.15494 5.17431 4.154C5.17435 4.15354 5.17439 4.15319 5.17442 4.15293C5.17443 4.1528 5.17445 4.15268 5.17445 4.1526V4.15253C5.17446 4.1525 5.17448 4.15246 5.3411 4.16928L5.17445 4.15245L5.18953 4H14.4105ZM5.49444 4.33856C5.49061 4.38544 5.486 4.44314 5.48092 4.51166C5.46475 4.73009 5.44315 5.05844 5.42151 5.49669C5.37824 6.37319 5.33488 7.68933 5.33488 9.44512C5.35924 12.8899 7.87072 14.6646 9.8 15.6234C11.7293 14.6646 14.2408 12.8899 14.2651 9.44512C14.2651 7.68933 14.2218 6.37319 14.1785 5.49669C14.1569 5.05844 14.1353 4.73009 14.1191 4.51166C14.114 4.44314 14.1094 4.38544 14.1056 4.33856H5.49444Z" fill="white"/>
</g>
</svg>
