<svg width="16" height="19" viewBox="0 0 16 19" fill="none" xmlns="http://www.w3.org/2000/svg">
<path fill-rule="evenodd" clip-rule="evenodd" d="M7.75 1.5C5.95507 1.5 4.5 2.95507 4.5 4.75C4.5 6.54493 5.95507 8 7.75 8C9.54493 8 11 6.54493 11 4.75C11 2.95507 9.54493 1.5 7.75 1.5ZM3 4.75C3 2.12665 5.12665 0 7.75 0C10.3734 0 12.5 2.12665 12.5 4.75C12.5 7.37335 10.3734 9.5 7.75 9.5C5.12665 9.5 3 7.37335 3 4.75Z" fill="#0B0E15"/>
<path fill-rule="evenodd" clip-rule="evenodd" d="M0 17.75C0 13.9139 3.58633 11 7.75 11C11.9137 11 15.5 13.9139 15.5 17.75C15.5 18.1642 15.1642 18.5 14.75 18.5C14.3358 18.5 14 18.1642 14 17.75C14 14.9518 11.3116 12.5 7.75 12.5C4.18841 12.5 1.5 14.9518 1.5 17.75C1.5 18.1642 1.16421 18.5 0.75 18.5C0.335786 18.5 0 18.1642 0 17.75Z" fill="#0B0E15"/>
</svg>
