<svg width="2387" height="79" viewBox="0 0 2387 79" fill="none" xmlns="http://www.w3.org/2000/svg">
<path d="M0.000314958 59.7324L2387 59.7329V78.2046L0.00031627 78.0747L0.000314958 59.7324Z" fill="#415845"/>
<path d="M964.506 16.0246C963.326 16.2499 960.191 17.087 957.538 17.8791C952.711 19.3425 952.668 19.3696 947.052 23.0961C943.838 25.2547 937.418 28.6842 935.333 29.3772C933.9 29.841 932.827 30.5184 931.341 31.8716C927.858 35.0045 923.858 37.3218 918.607 39.1827C916.915 39.7838 915.149 40.7427 913.225 42.1391C911.686 43.2664 909.841 44.4567 909.149 44.7637C907.464 45.5419 894.562 49.7921 892.381 50.2862C890.811 50.6541 880.165 54.0775 873.959 56.2561C871.918 56.9473 871.175 57.0789 868.053 57.1801C866.119 57.2333 862.331 57.1841 859.685 57.0632C854.613 56.8379 854.437 56.845 848.232 57.9587C843.991 58.6885 841.199 59.3088 836.451 60.5409C831.616 61.8018 827.683 62.5191 822.25 63.1451C817.912 63.6506 816.691 63.9283 813.084 65.0887C807.218 66.9746 806.214 67.1928 800.468 67.7047C794.109 68.2922 790.389 68.8234 789.263 69.2747C788.787 69.4715 787.35 69.8594 786.085 70.1642C784.776 70.4455 782.258 71.3082 780.439 72.0412C775.546 74.0397 774.454 74.2614 770.747 74.0315C765.276 73.721 762.424 73.9634 758.156 75.0999C750.188 77.2485 743.781 78.0875 741.244 78.0871C739.802 78.0868 734.392 78.0854 729.202 78.0839C721.484 78.0818 719.221 78.081 717.016 78.0799C713.213 78.0778 710.48 78.0766 707.344 78.0757L704.687 78.0748L716.326 78.0756C722.738 78.076 729.241 78.0764 730.824 78.0765C733.903 78.0765 738.983 78.076 743.633 78.0752C753.641 78.0735 756.338 78.0731 759.283 78.0733C763.809 78.0735 780.231 78.076 783.368 78.0769C785.066 78.0775 787.604 78.0779 790.369 78.0782C795.327 78.0786 797.024 78.0792 798.381 78.0807C799.906 78.0825 801.61 78.0828 808.555 78.0831C814.313 78.0834 814.663 78.0834 818.63 78.0846C820.896 78.0853 824.126 78.086 825.788 78.0864C829.507 78.087 841.985 78.0877 842.705 78.0873C843.02 78.0871 842.729 78.0866 841.663 78.0856C840.852 78.0848 840.177 78.084 840.186 78.0837C840.197 78.0834 841.356 78.083 843.751 78.0824C846.679 78.0818 848.224 78.0817 853.11 78.0816C861.519 78.0816 868.523 78.0815 873.066 78.0812C885.017 78.0806 889.078 78.0803 894.471 78.0796C906.276 78.0781 909.098 78.078 917.487 78.0785C921.659 78.0788 925.827 78.0792 926.7 78.0795C928.925 78.08 931.686 78.0817 933.602 78.0836C935.689 78.0856 939.5 76.4658 944.88 78.0732C947.934 77.3916 950.59 76.6754 950.758 76.4658C950.926 76.2815 951.615 75.8986 952.308 75.617C954.386 74.7468 958.145 75.1774 963.009 76.8055C963.991 77.146 966.039 77.6968 967.548 78.0158C969.102 78.3331 973.411 78.087 977.101 78.0859C986.966 78.0832 991.304 78.0825 1007.77 78.0811C1019.56 78.0801 1026.5 78.0793 1033.4 78.0783C1041.1 78.0772 1045.6 78.0769 1056.65 78.077C1066.77 78.0771 1068.57 78.0773 1073.62 78.0789C1077.19 78.08 1080.02 78.0807 1091.77 78.0835C1096.88 78.0848 1097.23 78.0848 1106.1 78.0853C1111.07 78.0855 1117.92 78.086 1121.26 78.0863C1131.26 78.0871 1140.67 78.0874 1143.86 78.087C1149.65 78.0863 1157.53 78.0849 1164.28 78.0833C1175.86 78.0806 1179.79 78.0801 1180.5 78.0815C1180.7 78.0819 1180.58 78.0829 1180.2 78.0838C1179.86 78.0847 1179.7 78.0856 1179.78 78.0857C1180.25 78.0862 1183.19 78.0864 1186.19 78.0861C1187.96 78.0859 1192.19 78.0858 1195.58 78.0858C1203.81 78.0858 1208.89 78.0854 1213.67 78.0845C1217.26 78.0839 1218.05 78.0838 1221.39 78.0841C1225.3 78.0844 1229.7 78.0856 1237.54 78.0882C1244.85 78.0906 1248.05 75.8419 1260.11 75.7585C1263.93 75.73 1266.48 75.6266 1266.87 75.4587C1267.87 75.0127 1267.01 74.3885 1264.79 73.9207C1258.53 72.6534 1253.99 71.4937 1250.91 70.4018C1246.4 68.7847 1245.15 68.4803 1237.62 67.2393C1234.16 66.6696 1229.5 65.7684 1227.32 65.223C1225.1 64.6793 1221.77 63.9524 1219.86 63.5988C1218 63.2434 1215.11 62.6758 1213.52 62.335C1211.74 61.976 1208.51 61.6252 1205.34 61.4498C1202.47 61.2873 1198.4 60.8944 1196.32 60.5732C1192.02 59.8856 1185.85 59.5529 1177.66 59.5555C1172.15 59.5252 1172.02 59.5305 1168.81 58.5705C1159.9 55.9149 1149.29 53.658 1143.86 53.2697C1142.4 53.1767 1140.5 53.0002 1139.62 52.9093C1137.1 52.6566 1133.19 52.9165 1129.04 53.6173C1126.94 53.956 1123.26 54.4095 1120.93 54.6052C1114.79 55.0826 1112.84 54.7054 1107.31 51.9379C1105.02 50.8139 1100.45 48.8443 1097.19 47.5569C1090.84 45.1271 1089.68 44.8697 1083.42 44.566C1079.49 44.3702 1079 44.2127 1074.16 41.9247C1068.99 39.472 1066.94 38.8959 1063.52 39.0349C1057.67 39.272 1050.1 38.1594 1046.25 36.5156C1045.04 36.0069 1041.95 34.8643 1039.32 33.9823C1036.73 33.0986 1034.45 32.253 1034.27 32.1082C1034.09 31.9635 1032.61 31.4149 1030.96 30.848C1028.95 30.1689 1027.25 29.3254 1025.61 28.1747C1023.35 26.5426 1023.03 26.4285 1018.01 25.2632C1015.17 24.6179 1011.04 23.7206 1008.82 23.3035C1006.65 22.8846 1003.85 22.2376 1002.6 21.8319C1001.39 21.4497 998.457 20.6562 996.145 20.0908C993.833 19.5254 991.649 18.8534 991.331 18.6127C991.013 18.3721 990.035 18.1329 989.108 18.0691C988.226 18.0288 986.405 17.621 985.112 17.2171C982.835 16.4474 982.659 16.4292 979.546 16.733C976.519 17.0078 976.211 16.995 973.01 16.2374C969.454 15.3929 968.089 15.3722 964.506 16.0246Z" fill="#415845"/>
<path d="M2233.36 9.5366C2234.36 9.65927 2237.06 10.2727 2239.36 10.893C2243.54 12.0484 2243.58 12.0757 2248.69 15.8627C2251.61 18.0613 2257.35 21.3881 2259.16 21.9607C2260.41 22.339 2261.38 23.0208 2262.78 24.4661C2266.04 27.8066 2269.64 30.0972 2274.22 31.6787C2275.7 32.19 2277.28 33.1239 2279.04 34.5658C2280.45 35.7316 2282.13 36.9348 2282.74 37.2178C2284.23 37.9438 2295.44 41.4407 2297.31 41.7611C2298.66 42.0065 2307.9 44.7911 2313.31 46.635C2315.09 47.211 2315.72 47.2758 2318.32 47.0029C2319.93 46.8222 2323.07 46.2834 2325.25 45.8026C2329.42 44.8888 2329.57 44.8752 2334.85 45.434C2338.46 45.7781 2340.85 46.1734 2344.93 47.0595C2349.1 47.9695 2352.44 48.3375 2357.03 48.4055C2360.68 48.4666 2361.73 48.6473 2364.86 49.5914C2369.95 51.1251 2370.81 51.2614 2375.64 51.1521C2380.99 51.0564 2384.13 58.2267 2385.12 58.6289C2385.54 58.8061 2387 59.4967 2387 59.7046C2387 59.8784 2387 60.1967 2387 60.8511C2387 62.6439 2387 62.7734 2387 62.0267C2387 60.9595 2387 60.8912 2387 61.7228C2387 63.3076 2387 64.4016 2387 64.5719C2387 64.7048 2387 58.9139 2387 59.7046C2387 60.911 2387 60.9424 2387 61.8729C2387 63.4749 2387 64.3339 2387 64.9473V65.4449V66.134C2387 66.5092 2387 66.9527 2387 67.1061C2387 67.4369 2387 68.5961 2387 69.9974C2387 73.0385 2387 73.7375 2387 73.966C2387 74.3173 2387 73.8475 2387 73.2648C2387 72.9376 2387 72.7979 2386.32 72.8901C2382.16 73.03 2380.69 72.6722 2379.42 71.3087C2377.97 69.7134 2376.52 69.5396 2370.73 70.1092C2365.93 70.5867 2365.63 70.5833 2362.23 69.9119C2360.28 69.5063 2357.52 69.1145 2356.11 68.9986C2352.96 68.7977 2342.54 69.6743 2341.99 70.2197C2341.75 70.4583 2342.04 70.9253 2343.02 71.8218C2343.77 72.4933 2344.42 73.2671 2344.44 73.5433C2344.46 73.8807 2343.54 74.4296 2341.61 75.2887C2339.25 76.3115 2337.98 76.6457 2333.93 77.2697C2326.96 78.3507 2321.17 78.0869 2317.42 78.0859C2307.58 78.0834 2304.24 73.2129 2299.84 74.5801C2290.2 77.6076 2287.87 78.0884 2280.86 78.0878C2277.37 78.0875 2273.87 74.0056 2273.13 73.9815C2271.22 73.9155 2268.76 73.6416 2266.98 73.2904C2265.04 72.91 2262.92 78.0827 2257.13 78.0839C2254.52 78.0844 2252.23 78.085 2252.06 78.0853C2251.9 78.0855 2251.28 78.086 2250.67 78.0863C2248.85 78.0872 2245.78 72.1708 2241.94 72.708C2241.17 72.8195 2239.54 73.0118 2238.32 73.1317C2237.07 73.2524 2233.62 73.6086 2230.66 73.9294C2222.76 74.764 2219.23 75.0251 2205.72 75.7626C2196.05 76.2906 2190.37 76.6384 2184.75 77.0365C2178.49 77.4794 2174.78 77.654 2165.61 77.928C2157.21 78.1743 2155.7 78.1843 2151.34 77.9728C2148.27 77.8267 2145.84 77.7515 2135.82 77.4635C2131.45 77.3358 2131.16 77.3415 2123.75 77.4722C2119.6 77.546 2113.88 77.6312 2111.08 77.6596C2102.69 77.7385 2094.86 78.0886 2092.26 78.0884C2087.53 78.0881 2081.14 78.0874 2075.71 78.0868C2066.38 78.0858 2063.16 78.0856 2062.44 78.0859C2062.22 78.086 2062.23 78.0862 2062.45 78.0865C2062.64 78.0867 2062.69 78.0869 2062.61 78.087C2062.17 78.0871 2059.7 78.087 2057.24 78.0869C2055.8 78.0868 2052.3 78.0866 2049.49 78.0865C2042.67 78.0862 2038.5 78.086 2034.62 78.0856C2031.71 78.0853 2031.06 78.0853 2028.26 78.0853C2024.99 78.0852 2021.22 78.0854 2014.45 78.0858C2008.14 78.0862 2005.44 78.0862 1995.43 78.0858C1992.25 78.0857 1990.12 78.0857 1989.78 78.0857C1988.9 78.0858 1989.54 78.086 1991.33 78.0862C1996.36 78.0868 1999.99 78.0873 2002.41 78.0877C2005.96 78.0883 2006.95 78.0496 2013.05 77.5393C2015.85 77.3051 2019.6 76.9559 2021.34 76.7615C2023.12 76.5663 2025.8 76.2959 2027.33 76.1568C2028.84 76.0184 2031.16 75.7999 2032.44 75.6721C2033.87 75.5351 2036.51 75.362 2039.12 75.2342C2041.48 75.1178 2044.8 74.912 2046.49 74.7764C2049.97 74.4904 2055.06 74.2441 2061.85 74.0291C2066.41 73.8765 2066.52 73.8743 2069.06 73.5486C2076.13 72.6466 2084.66 78.3457 2089.12 77.1898C2090.31 76.8932 2091.87 76.4397 2092.59 76.2181C2094.65 75.5942 2097.92 75.4134 2101.45 75.7336C2103.23 75.8767 2106.34 75.9584 2108.29 75.9003C2113.44 75.6989 2115.02 74.9966 2119.26 70.9569C2121.03 69.3103 2124.58 66.3546 2127.13 64.3875C2132.11 60.6511 2133.03 60.1943 2138.19 59.035C2141.42 58.302 2141.81 58.0497 2145.55 54.6747C2149.54 51.0611 2151.17 50.1065 2154.03 49.8405C2158.9 49.3868 2165.05 47.0855 2168.04 44.6139C2168.99 43.8469 2171.4 42.0776 2173.48 40.6798C2175.52 39.2855 2177.31 37.9764 2177.44 37.7786C2177.58 37.5809 2178.73 36.732 2180.03 35.8389C2181.62 34.765 2182.93 33.5309 2184.15 31.9355C2185.83 29.6787 2186.07 29.5014 2190.1 27.4593C2192.38 26.3206 2195.7 24.7149 2197.48 23.9307C2199.24 23.15 2201.48 22.0147 2202.47 21.367C2203.42 20.7533 2205.76 19.4238 2207.61 18.4487C2209.46 17.4737 2211.19 16.3862 2211.42 16.0555C2211.66 15.7248 2212.44 15.3123 2213.2 15.118C2213.93 14.9577 2215.39 14.2349 2216.41 13.5838C2218.21 12.3667 2218.35 12.3224 2220.97 12.295C2223.51 12.2437 2223.77 12.1892 2226.33 10.8698C2229.18 9.40045 2230.31 9.20268 2233.36 9.5366Z" fill="#415845"/>
<path d="M2112.73 32.013C2113.74 32.1357 2116.44 32.7491 2118.73 33.3694C2122.91 34.5248 2122.95 34.5521 2128.06 38.3391C2130.99 40.5377 2136.72 43.8645 2138.54 44.4371C2139.78 44.8154 2140.75 45.4972 2142.15 46.9425C2145.42 50.283 2149.01 52.5736 2153.59 54.1551C2155.07 54.6664 2156.65 55.6003 2158.41 57.0422C2159.83 58.208 2161.5 59.4112 2162.11 59.6942C2163.6 60.4202 2174.82 63.9171 2176.69 64.2375C2178.03 64.4829 2187.27 67.2675 2192.68 69.1114C2194.46 69.6874 2195.09 69.7521 2197.69 69.4793C2199.3 69.2986 2202.44 68.7598 2204.62 68.279C2208.8 67.3652 2208.94 67.3516 2214.23 67.9104C2217.83 68.2545 2220.22 68.6498 2224.31 69.5359C2228.47 70.4459 2231.82 70.8139 2236.4 70.8819C2240.06 70.943 2241.1 71.1236 2244.24 72.0678C2249.33 73.6015 2250.19 73.7378 2255.01 73.6285C2260.36 73.5328 2263.51 73.7031 2264.5 74.1053C2264.92 74.2825 2266.15 74.5688 2267.24 74.7767C2268.36 74.9505 2270.55 75.6731 2272.15 76.3275C2276.45 78.1203 2277.38 78.2498 2280.43 77.5031C2284.93 76.4359 2287.32 76.3676 2291 77.1992C2297.87 78.784 2303.37 78.0863 2305.52 78.0861C2306.75 78.0859 2311.38 70.9241 2315.83 71.7148C2322.45 72.9212 2324.4 73.4188 2326.35 74.3493C2329.72 75.9513 2332.1 76.8103 2334.81 77.4237L2337.09 77.9213L2327.36 78.0878C2322 78.0874 2316.57 78.0868 2315.25 78.0867C2312.69 78.0863 2308.53 78.0849 2304.76 78.0832C2296.63 78.0797 2294.43 78.0788 2291.98 78.0786C2288.2 78.0781 2274.33 75.5424 2271.63 75.4211C2270.16 75.353 2268.01 75.3239 2265.69 75.3431C2261.53 75.3722 2260.07 75.2977 2258.79 75.0139C2257.35 74.6818 2255.89 74.6456 2250.1 74.7642C2245.3 74.8636 2245.01 74.8629 2241.6 74.7231C2239.65 74.6387 2236.89 74.5571 2235.48 74.533C2232.33 74.4912 2221.91 74.6737 2221.36 74.7872C2221.12 74.8369 2221.41 74.9341 2222.4 75.1207C2223.15 75.2605 2223.79 75.4216 2223.81 75.479C2223.84 75.5493 2222.92 75.6635 2220.99 75.8424C2218.62 76.0553 2217.36 76.1248 2213.31 76.2547C2206.33 76.4798 2200.54 76.6948 2196.8 76.8701C2186.95 77.318 2183.62 77.4919 2179.21 77.7765C2169.58 78.4067 2167.25 78.0879 2160.24 78.0878C2156.75 78.0877 2153.25 78.0877 2152.5 78.0877C2150.6 78.0878 2148.14 78.3204 2146.36 77.9691C2144.42 77.5888 2142.3 77.4306 2136.5 77.2277C2133.89 77.1369 2131.6 77.0269 2131.44 76.9787C2131.27 76.9368 2130.66 76.8588 2130.05 76.8063C2128.22 76.6424 2125.15 76.8496 2121.32 77.3868C2120.54 77.4982 2118.91 77.6905 2117.7 77.8105C2116.45 77.9311 2112.99 78.0882 2110.04 78.0878C2102.13 78.0868 2098.61 78.0865 2085.1 78.0856C2075.42 78.085 2069.75 78.0846 2064.13 78.0841C2057.86 78.0836 2054.16 78.0834 2044.99 78.0831C2036.58 78.0828 2035.07 78.0828 2030.72 78.083C2027.64 78.0832 2025.22 78.0833 2015.19 78.0836C2010.83 78.0838 2010.53 78.0838 2003.12 78.0836C1998.98 78.0835 1993.25 78.0834 1990.45 78.0834C1982.07 78.0833 1974.23 78.0831 1971.63 78.0829C1966.9 78.0825 1960.51 78.0819 1955.08 78.0813C1945.75 78.0803 1942.53 78.08 1941.81 78.0804C1941.6 78.0805 1941.6 78.0807 1941.82 78.081C1942.01 78.0812 1942.06 78.0814 1941.98 78.0814C1941.54 78.0816 1939.08 78.0815 1936.62 78.0813C1935.17 78.0812 1931.68 78.0811 1928.87 78.081C1922.04 78.0807 1917.87 78.0805 1913.99 78.0801C1911.08 78.0798 1910.43 78.0798 1907.64 78.0797C1904.36 78.0797 1900.59 78.0799 1893.83 78.0803C1887.51 78.0807 1884.81 78.0807 1874.8 78.0803C1871.62 78.0802 1869.5 78.0802 1869.15 78.0802C1868.28 78.0803 1868.92 78.0805 1870.7 78.0807C1875.74 78.0813 1879.36 78.0818 1881.78 78.0822C1885.33 78.0828 1886.33 78.0829 1892.42 78.0835C1895.22 78.0838 1898.98 78.0842 1900.72 78.0845C1902.49 78.0847 1905.17 78.085 1906.71 78.0852C1908.21 78.0853 1910.53 78.0856 1911.82 78.0857C1913.25 78.0859 1915.88 78.0861 1918.5 78.0863C1920.85 78.0864 1924.18 78.0866 1925.87 78.0868C1929.35 78.0871 1934.43 78.0874 1941.22 78.0877C1945.78 78.0879 1945.89 78.0879 1948.44 78.0883C1955.51 78.0893 1964.03 76.4787 1968.49 76.2381C1969.69 76.1764 1971.24 76.082 1971.96 76.0358C1974.02 75.906 1977.29 75.8683 1980.82 75.935C1982.61 75.9648 1985.71 75.9818 1987.66 75.9697C1992.82 75.9278 1994.39 75.7816 1998.64 74.9406C2000.4 74.5979 2003.95 73.9826 2006.51 73.5731C2011.48 72.7954 2012.84 75.9683 2018 75.9697C2021.23 75.9706 2024.93 76.3881 2024.93 77.1511C2028.91 73.5375 2030.54 72.5829 2033.4 72.3169C2038.28 71.8632 2044.42 69.5619 2047.42 67.0903C2048.36 66.3233 2050.78 64.5539 2052.86 63.1562C2054.9 61.7619 2056.68 60.4528 2056.82 60.255C2056.95 60.0573 2058.11 59.2084 2059.41 58.3152C2060.99 57.2414 2062.31 56.0073 2063.52 54.4119C2065.2 52.1551 2065.45 51.9778 2069.47 49.9357C2071.75 48.797 2075.07 47.1913 2076.86 46.4071C2078.61 45.6264 2080.85 44.4911 2081.84 43.8434C2082.79 43.2297 2085.13 41.9001 2086.98 40.9251C2088.83 39.9501 2090.56 38.8626 2090.8 38.5319C2091.03 38.2012 2091.81 37.7887 2092.57 37.5943C2093.3 37.4341 2094.76 36.7113 2095.79 36.0602C2097.58 34.8431 2097.73 34.7988 2100.34 34.7714C2102.89 34.7201 2103.14 34.6656 2105.7 33.3462C2108.55 31.8768 2109.68 31.6791 2112.73 32.013Z" fill="#415845"/>
<path d="M1362.78 16.3512C1361.29 16.5117 1357.28 17.1765 1353.88 17.8228C1347.69 19.0209 1347.63 19.0456 1340.09 22.4636C1335.77 24.4455 1327.29 27.5223 1324.61 28.1007C1322.76 28.4857 1321.33 29.1041 1319.27 30.3757C1314.46 33.3173 1309.15 35.4147 1302.36 36.9871C1300.18 37.4951 1297.84 38.357 1295.24 39.6477C1293.16 40.6904 1290.69 41.7794 1289.78 42.0483C1287.58 42.7339 1272.06 34.7172 1269.29 35.0914C1267.29 35.3731 1253.6 38.2114 1245.59 40.0489C1242.96 40.6279 1242.02 40.7187 1238.16 40.6483C1235.76 40.5951 1231.1 40.3377 1227.86 40.0714C1221.65 39.5673 1221.43 39.5647 1213.6 40.3373C1208.25 40.834 1204.7 41.3009 1198.65 42.2719C1192.48 43.2671 1187.51 43.7682 1180.71 44.0956C1175.28 44.3627 1173.73 44.5733 1169.09 45.5355C1161.55 47.0989 1160.28 47.2619 1153.11 47.458C1145.17 47.696 1140.5 48.0227 1139.04 48.4121C1138.42 48.5828 1136.58 48.8916 1134.97 49.127C1133.31 49.3363 1130.07 50.0606 1127.7 50.6936C1121.34 52.4232 1119.96 52.585 1115.43 52.1512C1108.73 51.54 1105.18 51.6256 1099.73 52.5276C1089.55 54.2382 1081.39 55.4643 1078.2 55.732C1076.38 55.914 1069.51 56.7995 1062.92 57.7135C1053.11 59.0982 1050.21 59.6234 1047.33 60.5043C1042.35 62.0215 1038.82 62.8695 1034.81 63.5342L1031.42 64.079L1045.88 64.0693C1053.84 64.0603 1061.91 64.1033 1063.87 64.1514C1067.67 64.2719 1073.86 64.9789 1079.48 65.9079C1091.57 67.9283 1094.85 68.3729 1098.5 68.4153C1104.11 68.4805 1124.7 67.272 1128.7 66.6327C1130.86 66.2768 1134.06 66.0345 1137.5 65.9729C1143.68 65.8415 1145.85 65.4603 1147.73 64.2629C1149.86 62.8651 1152.01 62.6361 1160.61 62.7615C1167.74 62.8698 1168.18 62.8495 1173.23 62.0954C1176.12 61.6463 1180.21 61.1604 1182.31 60.9815C1186.98 60.6295 1202.46 60.7332 1203.28 61.1493C1203.64 61.3313 1203.22 61.7327 1201.76 62.5287C1200.66 63.1255 1199.7 63.8003 1199.68 64.0286C1199.65 64.3077 1201.02 64.7047 1203.89 65.297C1207.41 65.9984 1209.3 66.1981 1215.32 66.4714C1225.68 66.9475 1234.3 67.4541 1239.86 67.9252C1254.5 69.1116 1259.46 69.6011 1266.02 70.4648C1280.36 72.3843 1283.81 72.6532 1294.23 72.6473C1299.41 72.6314 1304.61 72.5139 1305.72 72.3744C1308.54 72.0008 1312.17 70.7729 1314.8 69.2793C1317.66 67.6613 1320.8 66.9104 1329.39 65.7655C1333.26 65.2517 1336.66 64.6815 1336.9 64.4811C1337.14 64.306 1338.05 63.961 1338.95 63.7174C1341.65 62.9614 1346.22 63.5987 1351.94 65.4943C1353.1 65.8888 1355.53 66.5521 1357.34 66.9542C1359.2 67.3569 1364.35 68.5599 1368.75 69.6526C1380.53 72.4822 1385.78 73.3053 1405.88 75.4188C1420.26 76.9325 1428.71 78.0886 1437.07 78.0871C1446.4 78.0855 1451.91 78.0849 1465.54 78.0843C1478.02 78.0837 1480.27 78.0838 1486.72 78.0851C1491.28 78.086 1494.87 79.7306 1509.75 77.9983C1516.21 77.2353 1516.65 77.2403 1527.66 77.3175C1533.82 77.3637 1542.32 77.3611 1546.47 77.3077C1558.93 77.1223 1570.57 77.3847 1574.44 77.8869C1582.5 74.2046 1590.99 78.0856 1599.08 78.0836C1612.98 78.0801 1617.77 78.0794 1618.82 78.0808C1619.14 78.0812 1619.12 78.0821 1618.78 78.0831C1618.49 78.084 1618.41 78.0848 1618.53 78.085C1619.18 78.0855 1622.83 78.0855 1626.49 78.085C1628.64 78.0847 1633.84 78.0843 1638.01 78.084C1648.16 78.0835 1654.36 78.0828 1660.14 78.0816C1664.47 78.0807 1665.44 78.0806 1669.59 78.0807C1674.45 78.0807 1680.04 78.0816 1690.07 78.0837C1699.42 78.0857 1703.43 78.0859 1718.3 78.0852C1723.03 78.085 1726.19 78.085 1726.69 78.0852C1727.99 78.0856 1727.03 78.0864 1724.38 78.0871C1716.87 78.089 1711.47 76.1779 1707.85 74.9165C1702.56 73.0514 1701.08 72.6785 1692 71.0234C1687.83 70.2637 1682.24 69.1063 1679.64 68.4411C1676.99 67.7752 1673.01 66.8651 1670.72 66.4066C1668.48 65.9488 1665.02 65.2227 1663.1 64.794C1660.97 64.3374 1657.05 63.8091 1653.17 63.4591C1649.66 63.1389 1644.71 62.5225 1642.2 62.0869C1637.02 61.1629 1629.46 60.4908 1619.37 60.0432C1612.59 59.7103 1612.43 59.7084 1608.63 58.572C1598.09 55.4264 1585.38 52.586 1578.75 51.8993C1576.97 51.7262 1574.66 51.4452 1573.58 51.3057C1570.52 50.9145 1565.66 50.9596 1560.43 51.4322C1557.78 51.6555 1553.17 51.9067 1550.27 51.9746C1542.62 52.1142 1540.28 51.6297 1533.93 48.5583C1531.29 47.3084 1525.98 45.0874 1522.17 43.6206C1514.75 40.8415 1513.37 40.5207 1505.7 39.8726C1500.89 39.4611 1500.31 39.2766 1494.72 36.722C1488.76 33.9855 1485.25 44.8546 1481 44.8052C1473.75 44.721 1464.61 43.192 1460.13 41.3364C1458.72 40.7612 1455.11 39.4491 1452.01 38.4223C1448.97 37.3962 1446.3 36.4253 1446.1 36.2705C1445.9 36.1158 1444.17 35.486 1442.23 34.8284C1439.87 34.0388 1437.9 33.1015 1436.08 31.861C1433.56 30.1043 1433.19 29.973 1427.2 28.5315C1423.8 27.7299 1418.86 26.6056 1416.19 26.0665C1413.58 25.5281 1410.24 24.7272 1408.77 24.2528C1407.35 23.8044 1403.86 22.8494 1401.1 22.1568C1398.34 21.4643 1395.76 20.6722 1395.41 20.4141C1395.06 20.156 1393.89 19.863 1392.76 19.7482C1391.68 19.6595 1389.5 19.1515 1387.98 18.6765C1385.3 17.7817 1385.08 17.7538 1381.2 17.8864C1377.42 17.9949 1377.04 17.9651 1373.22 17.0316C1368.98 15.9915 1367.3 15.8958 1362.78 16.3512Z" fill="#415845"/>
<path d="M1822.56 16.0328C1821.07 16.1932 1817.06 16.858 1813.66 17.5043C1807.47 18.7024 1807.41 18.7271 1799.87 22.1451C1795.55 24.127 1787.07 27.2038 1784.39 27.7822C1782.54 28.1672 1781.11 28.7856 1779.05 30.0572C1774.24 32.9988 1768.92 35.0962 1762.14 36.6686C1759.96 37.1766 1757.62 38.0385 1755.02 39.3292C1752.94 40.3719 1750.46 41.4609 1749.56 41.7298C1747.35 42.4154 1731.83 34.3987 1729.06 34.7729C1727.07 35.0546 1713.38 37.8929 1705.37 39.7304C1702.74 40.3094 1701.8 40.4002 1697.94 40.3298C1695.54 40.2766 1690.88 40.0192 1687.64 39.7529C1681.43 39.2488 1681.21 39.2462 1673.38 40.0188C1668.03 40.5155 1664.48 40.9824 1658.43 41.9534C1652.26 42.9486 1647.29 43.4497 1640.49 43.7771C1635.06 44.0442 1633.51 44.2548 1628.87 45.217C1621.33 46.7804 1620.06 46.9435 1612.89 47.1395C1604.95 47.3775 1600.28 47.7042 1598.82 48.0936C1598.2 48.2643 1596.36 48.5731 1594.75 48.8085C1593.09 49.0178 1589.85 49.7421 1587.48 50.3751C1581.12 52.1047 1579.74 52.2665 1575.21 51.8327C1568.51 51.2215 1564.96 51.3071 1559.51 52.2091C1549.33 53.9197 1541.17 55.1458 1537.98 55.4135C1536.16 55.5955 1529.29 56.481 1522.7 57.395C1512.89 58.7797 1509.99 59.3049 1507.11 60.1858C1502.13 61.703 1498.6 62.551 1494.59 63.2157L1491.2 63.7605L1505.66 63.7508C1513.62 63.7418 1521.69 63.7848 1523.65 63.8329C1527.45 63.9534 1533.64 64.6604 1539.26 65.5894C1551.35 67.6098 1554.63 68.0544 1558.27 68.0968C1563.88 68.162 1584.48 66.9535 1588.48 66.3142C1590.64 65.9583 1593.84 65.716 1597.28 65.6544C1603.46 65.523 1605.63 65.1418 1607.51 63.9444C1609.64 62.5466 1611.79 62.3176 1620.39 62.443C1627.52 62.5513 1627.96 62.531 1633.01 61.7769C1635.9 61.3278 1639.99 60.8419 1642.09 60.663C1646.76 60.311 1662.24 60.4147 1663.06 60.8308C1663.42 61.0128 1663 61.4142 1661.54 62.2102C1660.43 62.807 1659.48 63.4818 1659.46 63.7101C1659.43 63.9892 1660.8 64.3862 1663.67 64.9785C1667.19 65.6799 1669.08 65.8796 1675.1 66.1529C1685.46 66.629 1694.08 67.1356 1699.64 67.6067C1714.28 68.7931 1719.24 69.2826 1725.8 70.1463C1740.13 72.0658 1743.59 72.3347 1754.01 72.3288C1759.19 72.3129 1764.39 72.1954 1765.5 72.0559C1768.32 71.6823 1771.95 70.4544 1774.58 68.9608C1777.44 67.3428 1780.58 66.5919 1789.17 65.447C1793.04 64.9332 1796.44 64.363 1796.68 64.1626C1796.91 63.9875 1797.83 63.6425 1798.73 63.3989C1801.43 62.6429 1806 63.2802 1811.72 65.1758C1812.87 65.5703 1815.31 66.2336 1817.11 66.6357C1818.98 67.0384 1824.13 68.2414 1828.53 69.3341C1840.31 72.1637 1845.56 72.9868 1865.66 75.1003C1880.04 76.614 1888.49 78.0889 1896.85 78.0875C1906.18 78.0858 1911.69 78.0853 1925.32 78.0846C1937.8 78.0841 1940.05 78.0842 1946.5 78.0854C1951.06 78.0863 1954.57 76.0358 1969.53 77.6798C1975.99 76.9168 1976.43 76.9218 1987.44 76.999C1993.6 77.0452 2002.1 77.0426 2006.25 76.9892C2018.71 76.8038 2030.35 77.0662 2034.22 77.5684C2041.25 78.5139 2050.77 78.086 2058.86 78.084C2072.76 78.0805 2077.55 73.2659 2078.6 73.0305C2078.92 72.9573 2078.9 78.0825 2078.56 78.0835C2078.27 78.0844 2078.19 78.0852 2078.31 78.0853C2078.95 78.0858 2082.61 78.0858 2086.27 78.0854C2088.42 78.0851 2093.62 78.0846 2097.79 78.0844C2107.94 78.0839 2114.14 72.6724 2119.92 72.882C2124.25 73.0406 2125.22 73.0588 2129.37 73.0477C2134.23 73.033 2139.82 78.082 2149.85 78.0841C2159.2 78.0861 2163.21 78.0863 2178.08 78.0856C2182.81 78.0854 2185.96 78.0854 2186.47 78.0855C2187.77 78.086 2186.81 78.0868 2184.15 78.0875C2176.65 78.0894 2171.25 75.8594 2167.63 74.598C2162.34 72.7329 2160.86 72.36 2151.78 70.7049C2147.61 69.9452 2142.02 68.7878 2139.42 68.1226C2136.77 67.4567 2132.79 66.5466 2130.5 66.0882C2128.26 65.6303 2124.8 64.9042 2122.88 64.4755C2120.75 64.0189 2116.83 63.4906 2112.95 63.1406C2109.44 62.8204 2104.49 62.204 2101.98 61.7684C2096.8 60.8444 2089.24 60.1723 2079.15 59.7247C2072.37 59.3918 2072.21 59.3899 2068.41 58.2535C2057.87 55.1079 2045.16 52.2675 2038.53 51.5808C2036.75 51.4077 2034.44 51.1267 2033.36 50.9872C2030.3 50.596 2025.44 50.6411 2020.21 51.1137C2017.56 51.337 2012.95 51.5882 2010.05 51.6561C2002.4 51.7957 2000.06 51.3112 1993.71 48.2398C1991.07 46.9899 1985.76 44.7689 1981.95 43.3021C1974.53 40.5231 1973.15 40.2022 1965.48 39.5541C1960.67 39.1426 1960.09 38.9581 1954.5 36.4035C1948.54 33.667 1945.03 44.5361 1940.78 44.4867C1933.53 44.4025 1924.39 42.8735 1919.91 41.0179C1918.5 40.4427 1914.89 39.1306 1911.79 38.1038C1908.75 37.0777 1906.08 36.1068 1905.88 35.952C1905.68 35.7973 1903.95 35.1675 1902.01 34.5099C1899.65 33.7203 1897.68 32.783 1895.86 31.5425C1893.34 29.7858 1892.97 29.6545 1886.98 28.213C1883.58 27.4114 1878.64 26.2871 1875.97 25.748C1873.36 25.2096 1870.02 24.4087 1868.55 23.9343C1867.13 23.4859 1863.64 22.5309 1860.88 21.8383C1858.12 21.1458 1855.54 20.3537 1855.19 20.0956C1854.84 19.8375 1853.67 19.5445 1852.54 19.4297C1851.46 19.341 1849.28 18.833 1847.76 18.358C1845.08 17.4632 1844.86 17.4353 1840.98 17.5679C1837.2 17.6764 1836.82 17.6466 1833 16.7131C1828.76 15.6731 1827.08 15.5773 1822.56 16.0328Z" fill="#415845"/>
<path d="M618.924 18.3484C617.744 18.5382 614.602 19.2335 611.944 19.8889C607.106 21.0992 607.063 21.1212 601.419 24.1489C598.189 25.9024 591.743 28.6989 589.654 29.2704C588.216 29.6532 587.138 30.2039 585.642 31.299C582.135 33.8343 578.118 35.7211 572.853 37.2529C571.157 37.7476 569.383 38.5294 567.448 39.6625C565.901 40.577 564.047 41.5446 563.353 41.7958C561.662 42.4323 548.73 45.9381 546.546 46.3512C544.974 46.6583 534.303 49.4842 528.081 51.2779C526.035 51.8477 525.291 51.959 522.17 52.0653C520.236 52.1234 516.45 52.1148 513.805 52.0395C508.737 51.9003 508.561 51.9074 502.349 52.8489C498.104 53.4673 495.308 53.9863 490.551 55.0108C485.707 56.059 481.77 56.6649 476.333 57.2099C471.993 57.6496 470.77 57.8817 467.155 58.8396C461.276 60.3963 460.271 60.579 454.522 61.0353C448.161 61.557 444.437 62.0122 443.308 62.3825C442.83 62.5438 441.39 62.8659 440.124 63.12C438.813 63.3558 436.289 64.0666 434.464 64.6679C429.556 66.3069 428.463 66.4932 424.759 66.3392C419.293 66.135 416.44 66.3521 412.164 67.2962C404.181 69.0802 397.763 70.3951 395.224 70.7415C393.78 70.9623 388.362 71.9527 383.164 72.9545C375.434 74.4646 373.167 75.0028 370.955 75.8226C367.138 77.2348 364.398 78.0885 361.257 78.0876L358.595 78.087L370.236 78.0877C376.649 78.0881 383.151 78.0658 384.734 78.0219C387.813 77.9579 392.888 78.0882 397.53 78.0876C407.523 78.0863 410.217 78.0861 413.162 78.0862C417.689 78.0864 434.122 77.9454 437.264 77.2704C438.966 76.8971 441.506 76.571 444.272 76.3777C449.231 76.0143 450.932 75.6209 452.299 74.5919C453.835 73.3939 455.541 73.1219 462.485 72.8605C468.243 72.6472 468.594 72.6127 472.567 71.8026C474.837 71.3252 478.072 70.7681 479.735 70.5384C483.458 70.0629 495.937 69.4959 496.653 69.7914C496.966 69.9206 496.672 70.2571 495.599 70.9495C494.784 71.4694 494.103 72.0446 494.111 72.2268C494.12 72.4495 495.274 72.7069 497.666 73.0561C500.588 73.4649 502.132 73.5442 507.016 73.5083C515.422 73.4513 522.423 73.4919 526.963 73.6322C538.906 73.9591 542.963 74.1393 548.35 74.5495C560.141 75.4706 562.961 75.5388 571.351 75.0971C575.523 74.867 579.693 74.5559 580.567 74.3988C582.795 73.9839 585.567 72.8574 587.495 71.5624C589.595 70.1589 592.031 69.4314 598.803 68.163C601.861 67.5928 604.522 66.9981 604.691 66.829C604.861 66.6801 605.553 66.3682 606.248 66.1372C608.332 65.4239 612.086 65.7381 616.936 67.0016C617.915 67.2661 619.957 67.6903 621.464 67.9334C623.014 68.1747 627.314 68.913 630.996 69.5952C640.839 71.3457 645.171 71.7784 661.624 72.6119C673.402 73.209 680.332 73.6783 687.225 74.3114C694.913 75.0136 699.409 75.1558 710.452 75.0121C720.571 74.8653 722.371 74.7315 727.431 73.5933C731.008 72.7992 733.849 72.2986 745.61 70.3006C750.725 69.4239 751.076 69.4096 759.952 69.009C764.917 68.7874 771.77 68.4283 775.107 68.2118C785.116 67.5422 794.525 67.262 797.704 67.4981C803.489 67.953 811.362 68.8708 818.094 69.8754C829.654 71.6172 833.583 71.8837 834.293 70.9423C834.501 70.6499 834.388 70.0258 834.009 69.3719C833.677 68.7769 833.522 68.2154 833.607 68.1308C834.076 67.767 837.019 67.6071 840.02 67.7896C841.785 67.9005 846.013 67.9521 849.402 67.9363C857.632 67.8864 862.703 68.0864 867.479 68.6431C871.062 69.0656 871.856 69.0943 875.192 68.8778C879.1 68.6179 883.513 67.8102 891.362 65.9708C898.687 64.2337 901.888 63.9214 913.943 63.7569C917.771 63.7031 920.32 63.5997 920.71 63.4622C921.708 63.0972 920.851 62.6046 918.636 62.2483C912.39 61.2848 907.864 60.3935 904.792 59.5446C900.295 58.2871 899.053 58.0535 891.531 57.1215C888.08 56.6936 883.431 56.0101 881.257 55.5913C879.039 55.1742 875.715 54.6195 873.811 54.3519C871.951 54.0826 869.072 53.6517 867.477 53.392C865.705 53.1191 862.481 52.8645 859.307 52.7498C856.442 52.643 852.38 52.3615 850.302 52.1214C846.011 51.6058 839.839 51.3897 831.654 51.458C826.152 51.4784 826.02 51.4837 822.821 50.7414C813.933 48.6885 803.343 46.9683 797.917 46.7016C796.462 46.6389 794.564 46.5131 793.681 46.4475C791.164 46.2656 787.256 46.5053 783.099 47.0998C780.997 47.3879 777.315 47.7806 774.99 47.956C768.844 48.3878 766.896 48.1018 761.393 45.9318C759.112 45.0509 754.56 43.5116 751.306 42.5079C744.978 40.6148 743.825 40.4182 737.567 40.2258C733.644 40.101 733.155 39.9789 728.328 38.1871C723.187 36.2662 721.145 35.8217 717.717 35.9608C711.871 36.1978 704.31 35.3688 700.472 34.0845C699.268 33.6872 696.194 32.7978 693.569 32.1133C690.988 31.4271 688.716 30.7688 688.536 30.6545C688.355 30.5401 686.885 30.113 685.238 29.6727C683.236 29.1455 681.537 28.4844 679.915 27.5766C677.662 26.2889 677.35 26.2002 672.339 25.3082C669.502 24.8149 665.38 24.1303 663.167 23.8145C660.997 23.4969 658.203 23.0017 656.958 22.6872C655.758 22.3911 652.827 21.7798 650.521 21.3461C648.214 20.9124 646.036 20.3923 645.72 20.2023C645.404 20.0123 644.428 19.8288 643.502 19.7852C642.621 19.7601 640.803 19.4485 639.514 19.1357C637.245 18.5382 637.068 18.5251 633.953 18.7934C630.926 19.0379 630.618 19.0301 627.424 18.4498C623.877 17.8027 622.512 17.7973 618.924 18.3484Z" fill="#415845"/>
<path d="M289.673 0.463337C290.811 0.690112 293.836 1.53106 296.394 2.32648C301.049 3.79588 301.091 3.82303 306.498 7.55631C309.592 9.7188 315.778 13.1562 317.788 13.8518C319.171 14.3173 320.204 14.996 321.633 16.351C324.983 19.4881 328.836 21.8102 333.899 23.6776C335.53 24.2808 337.232 25.2419 339.084 26.6406C340.566 27.7697 342.342 28.9623 343.009 29.2701C344.633 30.0504 357.074 34.3165 359.178 34.8134C360.692 35.1832 370.958 38.6198 376.942 40.806C378.91 41.4998 379.627 41.6323 382.641 41.7375C384.509 41.793 388.167 41.7486 390.722 41.6311C395.62 41.4122 395.79 41.4195 401.778 42.5409C405.87 43.276 408.563 43.8998 413.143 45.1377C417.807 46.4046 421.602 47.1268 426.845 47.7596C431.032 48.2705 432.21 48.5498 435.688 49.7146C441.345 51.6078 442.313 51.8272 447.859 52.3463C453.997 52.9418 457.588 53.4776 458.673 53.9303C459.132 54.1277 460.518 54.5174 461.738 54.8237C463.001 55.1066 465.429 55.9725 467.182 56.7077C471.899 58.7122 472.952 58.9353 476.533 58.7101C481.817 58.4064 484.57 58.6524 488.686 59.7942C496.372 61.9527 502.553 63.5389 505 63.9492C506.392 64.2123 511.612 65.4019 516.618 66.6076C524.064 68.4261 526.246 69.0784 528.37 70.0832C532.036 71.8141 534.671 72.8156 537.695 73.6566L540.258 74.3508L529.022 73.6866C522.831 73.3171 516.554 72.9945 515.025 72.9536C512.052 72.9009 507.145 73.3223 502.653 73.9898C492.982 75.4473 490.376 75.7402 487.534 75.6171C483.163 75.4278 467.314 73.2961 464.289 72.4804C462.651 72.0291 460.202 71.6442 457.533 71.4272C452.747 71.017 451.11 70.5404 449.805 69.2668C448.338 67.7834 446.695 67.4587 439.99 67.1936C434.43 66.9782 434.092 66.9382 430.266 65.9611C428.08 65.3847 424.963 64.7172 423.36 64.4449C419.771 63.8838 407.724 63.2859 407.027 63.6615C406.723 63.8258 407.002 64.2436 408.028 65.0994C408.808 65.7417 409.457 66.4544 409.447 66.6822C409.435 66.9606 408.315 67.2924 406 67.75C403.171 68.2867 401.678 68.3996 396.96 68.398C388.84 68.4014 382.076 68.5141 377.688 68.7298C366.146 69.2441 362.224 69.5053 357.013 70.0656C345.609 71.3213 342.883 71.4314 334.784 70.9539C330.757 70.7034 326.734 70.3516 325.892 70.163C323.745 69.6644 321.084 68.2814 319.241 66.6802C317.233 64.9451 314.891 64.0576 308.368 62.5327C305.422 61.8472 302.86 61.1277 302.699 60.9179C302.537 60.7334 301.873 60.3497 301.205 60.0672C299.203 59.1944 295.571 59.6203 290.867 61.2422C289.917 61.5814 287.938 62.1296 286.479 62.4467C284.977 62.762 280.812 63.7227 277.246 64.6078C267.71 66.8825 263.519 67.4617 247.611 68.649C236.224 69.4997 229.522 70.1476 222.853 70.9998C215.416 71.9455 211.07 72.163 200.404 72.0813C190.631 71.9877 188.894 71.8364 184.023 70.4591C180.578 69.4985 177.841 68.8982 166.51 66.5057C161.582 65.4556 161.242 65.4409 152.673 65.019C147.88 64.7861 141.265 64.3982 138.045 64.1573C128.385 63.4093 119.299 63.1426 116.224 63.4658C110.629 64.0855 103.009 65.3022 96.4909 66.6173C85.297 68.8963 81.4977 69.2643 80.8257 68.0941C80.6289 67.7306 80.7478 66.9497 81.1234 66.1293C81.4533 65.3829 81.6113 64.6798 81.5308 64.5749C81.0827 64.1244 78.242 63.9507 75.3403 64.2053C73.6332 64.3596 69.5478 64.4616 66.2741 64.4719C58.3243 64.4826 53.4229 64.7774 48.7998 65.5154C45.3323 66.0751 44.5652 66.118 41.3449 65.8771C37.5741 65.587 33.3226 64.6168 25.7673 62.3879C18.7168 60.2823 15.6293 61.9204 3.98577 61.8218C0.288839 61.7885 0.492199 62.6814 0.496224 62.513C0.506502 62.0658 0.0233263 60.1973 0.000314958 59.7324C-0.064553 58.473 9.90899 55.565 12.8893 54.477C17.2526 52.8657 18.456 52.5629 25.736 51.3314C29.0763 50.7662 33.5786 49.8708 35.6851 49.3282C37.8341 48.7874 41.0536 48.0647 42.8968 47.7135C44.6975 47.3604 47.485 46.7965 49.0301 46.4578C50.7459 46.101 53.8642 45.7543 56.9323 45.5829C59.7024 45.424 63.6301 45.0363 65.6418 44.7177C69.7949 44.0355 75.7603 43.7107 83.6666 43.7234C88.9814 43.7001 89.1087 43.7056 92.2108 42.7496C100.827 40.1055 111.084 37.862 116.33 37.4806C117.736 37.3894 119.572 37.2154 120.426 37.1256C122.86 36.876 126.632 37.1408 130.64 37.8468C132.665 38.1881 136.216 38.6462 138.461 38.8448C144.391 39.3299 146.278 38.9552 151.626 36.1948C153.843 35.0737 158.264 33.11 161.423 31.8269C167.564 29.4051 168.68 29.1492 174.73 28.8534C178.521 28.6626 178.996 28.5057 183.686 26.2239C188.68 23.7779 190.66 23.2044 193.97 23.3477C199.613 23.5921 206.93 22.4891 210.657 20.8502C211.827 20.3431 214.809 19.2045 217.355 18.3259C219.859 17.4454 222.064 16.6027 222.24 16.4582C222.416 16.3137 223.843 15.767 225.44 15.2023C227.382 14.5257 229.034 13.6844 230.614 12.5358C232.81 10.9067 233.113 10.793 237.967 9.63403C240.715 8.99239 244.707 8.10034 246.851 7.68606C248.952 7.26994 251.658 6.62646 252.865 6.22237C254.03 5.84174 256.87 5.05193 259.104 4.48947C261.339 3.92701 263.451 3.2578 263.759 3.01758C264.067 2.77736 265.013 2.5394 265.908 2.47676C266.76 2.43759 268.521 2.03207 269.771 1.62981C271.972 0.863052 272.143 0.845094 275.148 1.15273C278.069 1.43138 278.367 1.41893 281.46 0.665451C284.897 -0.174562 286.216 -0.193519 289.673 0.463337Z" fill="#415845"/>
</svg>
