<svg width="1886" height="1254" viewBox="0 0 1886 1254" fill="none" xmlns="http://www.w3.org/2000/svg">
<path opacity="0.09" d="M26.1914 293.684C49.2403 321.5 62.9184 358.241 93.3167 377.498C142.673 408.775 209.643 399.064 264.148 402.142C390.224 409.274 578.029 459.771 637.035 602.109C687.577 724.028 530.067 879.086 523.247 1006.42C520.627 1055.28 528.004 1097.04 533.648 1144.71C535.823 1163.06 536.095 1186.99 541.782 1204.55C548.16 1224.27 572.813 1232.47 589.219 1233.94C595.134 1234.47 601.2 1234.27 607.134 1234.37C609.885 1234.41 615.942 1237.5 615.389 1234.47C604.509 1174.56 568.598 1124.94 567.248 1061.57C565.182 964.492 618.9 898.3 654.089 816.167C705.642 695.831 668.592 590.342 830.423 575.872C1027.21 558.276 1018.72 752.468 1191.64 777.923C1299.3 793.769 1381.6 730.861 1475.78 683.106C1514.38 663.531 1556.95 651.185 1598.68 643.974C1649.58 635.179 1701.15 632.012 1752.61 632.691C1778.02 633.027 1828.5 648.756 1849.85 646.415C1864.11 644.847 1878.46 608.979 1879.27 595.076C1879.33 593.972 1873.1 592.625 1872.05 592.493C1850.98 589.836 1829.45 593.203 1808.37 594.428C1806.73 594.523 1805.1 594.618 1803.46 594.681C1771.57 595.844 1739.6 586.865 1708.11 582.183C1651.11 573.705 1587.67 569.333 1531.92 587.685C1442.7 617.052 1263.41 735.102 1172.66 698.894C1104.75 671.799 1062.98 599.826 1000.29 563.783C958.669 539.855 885.188 549.745 859.683 503.293C803.84 401.589 1100.85 380.707 1122.68 376.383C1241.7 352.802 1290.67 342.697 1370.36 236.612C1398.2 199.544 1417.15 155.696 1446.3 119.191C1470.48 88.9195 1502.71 72.2766 1534.77 54.9288C1549.65 46.8703 1564.91 40.3689 1580.11 33.1731C1580.86 32.8154 1586.78 29.8172 1586.48 29.0177C1584.36 23.1737 1562.97 20.3965 1560.22 19.8914C1468.93 3.23807 1432.47 60.7412 1374.32 128.907C1329.01 182.023 1293.74 257.142 1234.43 293.231C1176.69 328.369 1106.14 315.803 1043.61 321.609C982.903 327.248 912.427 346.564 856.715 375.457C775.528 417.569 809.752 530.656 726.563 547.246C633.042 565.899 621.844 498.333 565.678 443.259C550.115 427.995 531.173 417.453 512.112 408.896C496.129 401.721 479.593 395.65 462.439 393.142C433.053 388.844 320.843 393.483 321.894 346.979C323.453 278.056 400.904 255.9 444.907 231.289C477.973 212.799 508.07 187.646 533.69 157.795C563.85 122.647 601.233 63.7816 582.933 12.3328C582.732 11.7752 580.129 0.713201 576.745 0.581678C507.019 -2.13251 557.663 63.345 505.595 115.372C466.17 154.765 412.247 173.128 368.053 205.046C347.64 219.79 322.521 237.99 309.128 261.565C298.658 279.992 297.234 300.327 279.825 313.457C233.19 348.631 88.2941 330.384 49.777 285.383C39.2109 273.038 33.4738 258.357 28.1877 242.551" stroke="white" stroke-miterlimit="10" stroke-linecap="round" stroke-linejoin="round"/>
<path opacity="0.09" d="M485.696 43.2369C496.114 137.703 391.631 153.735 334.398 186.469C315.585 197.231 286.656 213.295 275.086 234.326C265.929 250.968 264.408 283.254 247.621 293.648C204.824 320.159 56.4578 313.057 31.5587 255.439C5.36319 194.816 112.72 264.644 116.035 265.765C132.562 271.335 152.89 274.47 169.548 269.536C202.121 259.889 209.56 203.649 228.015 179.015C276.251 114.642 368.028 123.784 395.554 34.6523" stroke="white" stroke-miterlimit="10" stroke-linecap="round" stroke-linejoin="round"/>
<path opacity="0.09" d="M374.099 17.4505C360.695 42.6831 349.713 67.7685 328.597 86.2945C291.982 118.423 236.435 110.759 200.973 147.606C179.55 169.861 178.701 214.009 147.547 225.708C143.781 227.123 48.0556 212.237 40.5088 202.048C35.6427 195.473 35.141 189.866 35.091 181.334C34.7437 122.605 107.118 172.897 133.01 174.948C136.369 175.216 140.034 176.279 143.109 174.738C167.276 162.639 163.453 124.73 188.693 112.932C214.092 101.054 237.75 95.0368 246.626 62.4296C247 61.0567 241.695 8.23496 240.861 6.7832" stroke="white" stroke-miterlimit="10" stroke-linecap="round" stroke-linejoin="round"/>
<path opacity="0.09" d="M226.842 32.1016C217.975 56.0507 207.341 88.6055 200.924 94.1233C184.184 108.51 164.387 105.238 146.387 114.68C129.956 123.301 121.772 141.716 104.052 147.071C93.1089 150.38 80.3153 143.826 69.8719 140.864C46.3773 134.205 20.9987 133.263 22.1594 96.6218C22.3205 91.5354 22.9398 76.9017 29.013 76.544C52.4857 75.1554 70.1267 100.73 93.8392 93.4815C105.794 89.8257 113.719 76.9964 125.094 73.3669C138.618 69.0537 151.31 71.0578 163.759 62.3208" stroke="white" stroke-miterlimit="10" stroke-linecap="round" stroke-linejoin="round"/>
<path opacity="0.09" d="M595.646 52.4391C590.161 177.892 515.602 222.239 422.029 261.832C398.06 271.973 314.947 293.776 333.817 341.364C348.987 379.627 492.902 356.524 532.646 375.109C598.857 406.068 596.142 521.927 694.135 517.257C758.649 514.179 784.674 435.5 820.215 386.922C835.697 365.766 857.954 349.344 878.892 335.999C955.472 287.191 1044.68 294.308 1129.05 286.134C1159.23 283.21 1189.54 272.889 1218.45 263.21C1235.42 257.529 1254.13 251.827 1268.54 239.693C1303.55 210.231 1327.68 166.357 1352.08 126.501C1369.28 98.3912 1381.51 65.6839 1402.91 41.1456C1404.65 39.1574 1421.56 26.428 1421.26 21.1784C1419.91 -2.33416 1325.88 24.8867 1311.98 31.4145C1243.96 63.3537 1241.48 136.784 1190.74 188.081C1101.65 278.133 951.267 224.733 844.041 295.423C793.374 328.829 770.846 431.396 697.384 419.577C642.061 410.666 692.171 312.25 656.616 294.414C615.929 274.005 562.051 294.697 521.302 305.322C486.974 314.275 452.232 329.614 416.716 330.75C411.33 330.924 401.849 326.489 403.526 319.13C409.601 292.493 487.281 280.869 507.55 274.798C592.899 249.229 700.81 169.455 661.585 51.0556" stroke="white" stroke-miterlimit="10" stroke-linecap="round" stroke-linejoin="round"/>
<path opacity="0.09" d="M690.83 54.283C692.367 95.1696 700.209 146.156 683.47 184.817C675.576 203.054 664.157 215.452 648.032 223.747C643.692 225.977 633.571 226.998 635.649 231.816C646.411 256.754 685.069 230.975 697.912 254.613C707.761 272.745 703.977 336.408 711.305 338.901C768.365 358.341 809.119 236.651 865.842 203.564C945.399 157.154 1058.36 254.398 1119.14 184.896C1143.44 157.097 1161.09 116.625 1179.35 84.1233C1190.64 64.0246 1218.63 13.996 1218 12.8914C1213.3 4.70148 1195.46 4.8014 1188.07 4.95386C1105.56 6.63719 1147.58 80.1678 1073.99 120.876C995.746 164.166 913.265 59.6904 867.895 77.1591C829.846 91.8136 823.556 178.5 781.931 210.229C772.04 217.766 760.162 220.776 748.251 219.113C719.761 215.141 726.252 193.954 726.614 168.458C726.74 159.532 724.261 148.828 727.205 140.212C742.532 95.301 797.025 68.2484 821.751 31.4173" stroke="white" stroke-miterlimit="10" stroke-linecap="round" stroke-linejoin="round"/>
<path opacity="0.09" d="M843.454 61.6523C815.629 73.356 736.944 132.327 747.107 174.555C748.401 179.92 753.562 183.023 758.202 182.945C806.498 182.14 824.657 67.3332 868.194 46.8663C942.618 11.8763 985.143 110.35 1027.44 100.95C1063.83 92.8603 1074.13 46.4296 1107.46 31.2754" stroke="white" stroke-miterlimit="10" stroke-linecap="round" stroke-linejoin="round"/>
<path opacity="0.09" d="M1637.74 52.4385C1491.36 59.0347 1441.93 231.386 1345.55 326.857C1249.39 422.111 1118.07 403.496 1000.84 421.628C985.412 424.015 902.508 440.327 915.038 469.52C934.787 515.525 1016.85 486.637 1053.19 503.028C1074.88 512.816 1083.25 535.308 1096.52 555.376C1117.03 586.39 1147.61 602.321 1180.46 610.601C1299.74 640.673 1365.64 569.236 1459.93 505.589C1480.38 491.776 1503.98 475.148 1528.18 471.215C1619.79 456.323 1694.53 535.093 1780.84 552.982C1795.16 555.949 1858.24 557.543 1859.54 553.492C1861.63 546.996 1869.99 498.188 1866.73 494.228C1860.41 486.579 1839.55 496.321 1832.1 498.783C1788.55 513.185 1734.71 514.131 1692.31 494.69C1633.04 467.506 1570.54 414.211 1503.04 423.822C1398.39 438.728 1330.48 560.662 1220.83 560.62C1169.17 560.599 1169.57 523.036 1130.46 507.383C1111.47 499.787 1036.01 499.851 1028.92 481.34C1018.26 453.524 1096.57 459.921 1101.13 460.158C1181.3 464.303 1273.84 461.173 1347.39 420.701C1412.36 384.955 1427.44 307.763 1469.98 248.713C1559.33 124.686 1622.36 78.8967 1770.74 63.6582" stroke="white" stroke-miterlimit="10" stroke-linecap="round" stroke-linejoin="round"/>
<path opacity="0.09" d="M1867.3 104.729L1867.47 54.2793C1750.43 91.2314 1611.05 118.994 1520.91 219.756C1476.4 269.511 1450.83 360.847 1409.85 397.215C1350.71 449.701 1283.03 455.886 1212.2 474.786C1201.48 477.647 1149.05 484.49 1166.32 510.538C1186 540.21 1235.02 517.534 1257.23 505.637C1342.53 459.932 1425.76 418.539 1517.02 389.909C1558.83 376.79 1596.08 364.888 1638.22 381.672C1664.78 392.249 1700.4 423.49 1723.08 441.1C1766.86 475.086 1819.1 445.087 1866.07 436.992L1866.28 378.936C1821.06 393.765 1765.01 410.397 1739.31 397.774C1709.1 382.935 1749.57 320.566 1670.61 314.043C1640.42 311.544 1534.53 334.583 1527.88 292.125C1520.13 242.622 1572.37 215.68 1605.26 201.11C1689.61 163.747 1777.06 121.408 1867.3 104.729Z" stroke="white" stroke-miterlimit="10" stroke-linecap="round" stroke-linejoin="round"/>
<path opacity="0.09" d="M1857.64 159.249C1836.67 164.357 1598.75 220.629 1613.74 263.404C1631.06 312.927 1709.74 274.629 1741.59 285.239C1792.05 302.05 1740.9 370.631 1793.65 370.199C1807.06 370.094 1820.59 366.754 1833.57 363.324C1844.04 360.557 1867.11 358.685 1874.94 348.022C1918.74 288.3 1809.77 327.755 1805.66 323.079C1792.55 308.194 1822.25 279.674 1819.77 262.31C1816.61 240.233 1792.51 243.899 1779.15 237.293C1778.32 236.882 1778.09 235.735 1778.3 234.715C1783.67 208.599 1807.84 202.66 1828.52 198.81C1843.41 196.038 1850.12 196.738 1864.46 194.113" stroke="white" stroke-miterlimit="10" stroke-linecap="round" stroke-linejoin="round"/>
<path opacity="0.09" d="M1857.64 687.769C1700.82 656.116 1523.52 672.586 1377.95 747.758C1343.64 765.478 1268.6 805.913 1255.49 844.534C1241.08 886.983 1267.91 903.215 1278.48 940.153C1289.99 980.371 1292.84 1023.22 1278.56 1062.95C1254.94 1128.62 1204.5 1161.6 1158.59 1205.42C1157.45 1206.51 1135.15 1225.34 1135.29 1225.72C1136.38 1228.63 1151.4 1230.5 1153.91 1230.91C1218.57 1241.45 1277.91 1159.64 1301.39 1100.14C1315.1 1065.42 1319.32 1027.47 1316.02 989.71C1312.74 952.107 1273.95 891.263 1300.51 857.37C1369.91 768.839 1685.27 704.035 1778.47 746.304C1812.24 761.618 1831.21 794.762 1850.2 827.602" stroke="white" stroke-miterlimit="10" stroke-linecap="round" stroke-linejoin="round"/>
<path opacity="0.09" d="M1291.46 1245.76C1318.85 1167.47 1439.13 1125.41 1441.12 1037.61C1442.72 966.83 1265.3 960.072 1354.58 874.558C1404.11 827.118 1654.21 758.027 1721.93 784.045C1761.41 799.209 1789.4 830.936 1816.6 864.667C1838.05 891.268 1858.36 921.161 1854.9 958.483C1854.48 962.906 1851.85 994.111 1847.56 995.359C1842.61 996.805 1778.66 912.717 1760.66 897.781C1699.91 847.39 1638.05 846.633 1566.78 863.908C1550.55 867.843 1534.65 873.158 1518.8 878.655C1502.02 884.467 1487.07 892.004 1472.25 902.526C1402.4 952.091 1601.93 970.444 1556.58 1045.69C1533.18 1084.51 1374.56 1183.69 1378.25 1214.54C1381.12 1238.42 1408.8 1237.1 1435.27 1230.08" stroke="white" stroke-miterlimit="10" stroke-linecap="round" stroke-linejoin="round"/>
<path opacity="0.09" d="M1435.27 1230.08C1456.72 1224.39 1477.38 1214.96 1483.43 1212.16C1521.03 1194.72 1614.94 1096.92 1638.48 1060.38C1687.03 985.046 1534.82 973.171 1567.22 931.614C1577.78 918.058 1593.48 909.973 1608.83 905.982C1632.04 899.949 1664.01 894.912 1687.17 901.833C1725.78 913.366 1779.47 975.911 1798.99 1015.68C1808.89 1035.83 1813.13 1058.26 1817.67 1080.45C1822.29 1103.03 1848.68 1221.57 1837.41 1226.93C1831.06 1229.95 1780.82 1250.6 1772.29 1243.54C1765.69 1238.07 1761.23 1227.97 1760.03 1219C1757.72 1201.82 1763.41 1183.79 1764.28 1166.51C1766.29 1126.47 1764.74 1081.41 1755.38 1042.62C1746.42 1005.43 1724.09 975.948 1689.83 968.514C1687.32 967.972 1680.63 965.09 1679.17 967.36C1661.56 994.528 1732.86 1066.17 1672.42 1131.92C1647.18 1159.37 1608.76 1178.15 1590.47 1212.11" stroke="white" stroke-miterlimit="10" stroke-linecap="round" stroke-linejoin="round"/>
<path opacity="0.09" d="M1636.09 1231.02C1673.21 1199.5 1696.1 1172.36 1707.56 1121.44C1711.29 1104.89 1713.64 1083.68 1724.86 1070.85C1727.46 1067.88 1731.95 1077.52 1732.36 1078.64C1737.09 1091.58 1731.56 1113.03 1727.97 1126.75C1718.45 1163.2 1707.76 1206.63 1687.29 1237.28" stroke="white" stroke-miterlimit="10" stroke-linecap="round" stroke-linejoin="round"/>
<path opacity="0.09" d="M699.032 1223.66C680.756 1199.85 667.781 1172.52 652.658 1146.18C597.716 1050.47 583.569 994.205 655.874 911.824C674.113 891.043 698.849 869.284 707.638 840.649C731.127 764.154 691.724 711.72 763.283 656.202C782.544 641.258 807.477 632.874 830.516 630.117C959.741 614.658 967.143 728.853 1065.04 774.589C1125.4 802.791 1195.63 773.919 1238.97 842.905C1261.99 879.54 1245.53 914.209 1246.97 953.011C1247.82 975.928 1257.48 995.92 1255.37 1019.32C1253.85 1036.17 1246.88 1052.22 1239.02 1066.45C1214.7 1110.5 1170.87 1139.08 1136.08 1171.05C1097.2 1206.77 1063.37 1284.07 1009.61 1224.84C989.221 1202.38 1043.9 1149.49 1056.71 1135.08C1082.56 1105.98 1157.26 1059.99 1163.61 1013.07C1166.09 994.814 1155.64 978.085 1156.82 960.247C1157.94 943.146 1172.98 922.172 1169.97 904.989C1158.8 841.378 1069.45 862.027 1029.55 845.675C995.258 831.622 985.649 797.83 960.444 771.88C914.591 724.673 845.253 675.827 779.309 687.051C697.007 701.056 757.251 830.723 742.569 879.786C722.699 946.188 649.058 956.125 682.189 1039.1C693.707 1067.94 719.994 1088.63 737.746 1112.14C762.008 1144.26 789.022 1189.46 795.683 1231.37" stroke="white" stroke-miterlimit="10" stroke-linecap="round" stroke-linejoin="round"/>
<path opacity="0.09" d="M835.248 1234.71C827.832 1182.15 818.47 1112.69 779.392 1076.3C755.002 1053.59 694.294 1057.05 687.295 1014.93C679.867 970.206 751.05 932.254 767.18 893.425C784.154 852.556 732.854 749.897 757.969 727.978C770.62 716.936 788.837 718.862 803.255 723.78C850.248 739.803 886.003 781.133 912.464 826.283C923.69 845.441 936.212 866.586 953.883 879.191C990.924 905.609 1027.44 877.346 1066.73 882.686C1082.57 884.84 1094.28 897.075 1100.49 912.934C1133.84 998.106 1041.25 1034.17 1018.73 1102.12C1005.79 1141.13 971.939 1196.19 978.76 1237.28C979.125 1239.46 1010.27 1229.27 1008.59 1231.01C965.414 1276.02 935.18 1156.28 956.542 1110C981.699 1055.51 1072.28 1042.65 1062.42 969.368C1051.33 887.063 953.912 956.034 912.37 932.34C886.364 917.506 872.395 856.051 843.432 858.074C806.025 860.686 843.633 923.39 830.55 945.01C820.454 961.696 758.264 968.447 758.767 981.091C759.76 1006.25 831.404 1048.6 849.014 1079.99C867.895 1113.65 877.13 1154.53 875.992 1194.19C875.494 1211.5 871.205 1230.73 874.177 1248" stroke="white" stroke-miterlimit="10" stroke-linecap="round" stroke-linejoin="round"/>
<path opacity="0.09" d="M941.915 1236.55C898.477 1177.05 892.562 1101.3 953.377 1057.19C969.432 1045.55 1033.62 1018.2 1033.6 993.367C1033.59 990.955 1032.6 988.287 1031.67 986.181C1014.16 946.226 959.475 984.842 932.058 983.503C904.037 982.132 861.07 928.177 839.409 976.773C829.974 997.939 863.095 1033.66 869.625 1052.61C890.888 1114.33 903.357 1187.83 895.359 1253.33" stroke="white" stroke-miterlimit="10" stroke-linecap="round" stroke-linejoin="round"/>
<path opacity="0.09" d="M516.876 1245.75C486.257 1152 462.653 1031.44 515.686 941.063C534.927 908.268 562.223 876.718 573.829 839.151C587.311 795.511 591.599 730.325 548.611 704.516C413.281 623.268 315.495 842.259 231.785 911.31C211.127 928.35 186.027 946.191 161.315 954.909C144.758 960.749 127.866 967.196 110.944 971.533C80.1078 979.435 21.8263 979.592 28.9958 1030.42C29.8287 1036.33 29.7088 1053.47 33.4414 1058.61C45.4837 1075.21 138.645 1027.2 159.173 1017.16C219.001 987.882 265.118 943.223 305.697 887.054C336.228 844.793 360.977 807.456 403.33 778.622C422.688 765.443 492.827 730.238 513.773 746.634C525.332 755.683 533.432 771.455 537.131 786.422C558.22 871.693 458.811 924.723 429.861 989.033C387.327 1083.51 408.015 1119.28 448.632 1205.94" stroke="white" stroke-miterlimit="10" stroke-linecap="round" stroke-linejoin="round"/>
<path opacity="0.09" d="M428.258 1234.71C411.6 1194.19 374.07 1066.39 377.369 1022.93C378.723 1005.1 384.76 985.78 394.519 971.457C422.963 929.712 473.968 916.06 498.145 870.345C514.975 838.527 517.353 782.77 481.158 769.194C443.152 754.94 398.315 803.855 374.012 829.571C303.592 904.086 248.587 997.296 167.021 1058.09C137.64 1080 101.53 1091.92 67.9778 1102.94C56.8898 1106.58 36.5776 1103.48 27.6521 1111.7C10.1058 1127.84 8.20132 1207.56 25.3408 1226.51C55.0332 1259.34 122.845 1185.25 143.323 1163.52C203.892 1099.23 250.943 1019.23 302.249 945.831C321.088 918.88 336.94 891.85 361.942 870.905C376.648 858.582 443.594 812.349 461.634 826.795C494.755 853.317 379.272 937.846 364.03 951.411C352.545 961.634 342.592 973.245 335.182 987.529C291.845 1071.07 351.292 1174.12 393.474 1237.28" stroke="white" stroke-miterlimit="10" stroke-linecap="round" stroke-linejoin="round"/>
<path opacity="0.09" d="M137.785 1219.98C159.786 1193.06 185.377 1170.19 206.693 1142.51C227.292 1115.77 242.159 1085.51 260.737 1057.35C264.484 1051.67 271.342 1041.42 278.062 1040.16C300.918 1035.86 297.951 1131.36 299.599 1144.62C302.762 1170.04 345.024 1202.26 332.966 1222.87C328.338 1230.77 316.491 1235.72 309.003 1238.49C263.602 1255.32 282.786 1175.1 247.734 1176.11C227.211 1176.7 213.884 1224.13 205.848 1238.2" stroke="white" stroke-miterlimit="10" stroke-linecap="round" stroke-linejoin="round"/>
<path opacity="0.09" d="M11.4257 947.426C231.057 964.598 246.72 781.125 398.16 684.247C439.382 657.875 489.66 646.86 535.513 662.162C549.065 666.685 603.988 702.981 615.426 689.605C656.381 641.721 533.221 554.715 508.696 536.051C486.217 518.94 466.319 499.436 442.144 484.981C343.531 426.011 233.569 457.545 127.865 439.287C103.23 435.032 80.7389 428.541 57.6815 417.699C50.1247 414.143 39.4729 404.592 31.4975 402.834C29.5739 402.409 10.0645 444.678 34.3157 468.817C63.9247 498.289 113.495 508.694 150.286 520.571C227.643 545.546 309.908 532.564 386.807 562.268C393.698 564.93 451.746 581.751 452.6 592.792C454.825 621.549 344.557 645.765 327.689 651.694C306.522 659.138 285.231 668.952 266.373 682.123C240.498 700.195 227.212 728.847 208.338 754.517C164.56 814.057 105.889 862.558 34.3981 861.238" stroke="white" stroke-miterlimit="10" stroke-linecap="round" stroke-linejoin="round"/>
<path opacity="0.09" d="M26.1933 827.727C127.555 825.265 140.019 793.605 200.619 710.224C213.647 692.298 225.625 674.586 243.011 661.636C281.34 633.089 328.41 625.299 370.582 605.726C374.062 604.112 386.02 599.599 382.764 594.239C355.632 549.607 218.815 580.772 175.53 578.837C124.435 576.559 84.0314 561.526 36.4575 542.59C35.5332 542.221 31.7297 540.312 30.7678 540.901C26.8641 543.299 23.9007 547.693 22.1882 552.169C-17.3686 655.582 185.169 601.518 196.854 631.812C198.337 635.662 197.972 639.655 197.469 643.715C192.585 683.216 135.103 688.523 109.79 702.629C96.3843 710.098 88.0771 723.027 77.7909 734.676C71.2637 742.069 31.0242 773.821 21.9337 762.782" stroke="white" stroke-miterlimit="10" stroke-linecap="round" stroke-linejoin="round"/>
<path opacity="0.09" d="M4.12269 769.095C-8.42581 753.856 14.6418 733.935 27.4453 721.776C62.8898 688.111 156.184 665.545 89.7287 650.206C79.7029 647.891 69.1692 649.007 59.0159 649.038C43.4747 649.08 31.0731 644.11 16.1106 641.475" stroke="white" stroke-miterlimit="10" stroke-linecap="round" stroke-linejoin="round"/>
</svg>
